<mxfile modified="2023-05-30T21:33:07.603Z" host="app.diagrams.net" agent="Mozilla/5.0 (X11; Linux x86_64; rv:109.0) Gecko/20100101 Firefox/111.0" etag="t22MHrpNZVzILCK7kMq7" version="21.3.6" type="github">
  <diagram id="d1ab7348-05c3-a1e3-ca4d-12c340fd6b49" name="Page-1">
    <mxGraphModel dx="2856" dy="1681" grid="1" gridSize="10" guides="1" tooltips="1" connect="1" arrows="1" fold="1" page="1" pageScale="1" pageWidth="1169" pageHeight="827" background="none" math="0" shadow="0">
      <root>
        <mxCell id="0" />
        <mxCell id="1" parent="0" />
        <mxCell id="0VyX5d_8uN8t0-djkHP3-226" value="" style="group" vertex="1" connectable="0" parent="1">
          <mxGeometry x="-860" y="-230" width="2050" height="980" as="geometry" />
        </mxCell>
        <mxCell id="0VyX5d_8uN8t0-djkHP3-246" value="&lt;font color=&quot;#000000&quot;&gt;&lt;b&gt;AWS S3&lt;/b&gt;&lt;/font&gt;" style="sketch=0;points=[[0,0,0],[0.25,0,0],[0.5,0,0],[0.75,0,0],[1,0,0],[1,0.25,0],[1,0.5,0],[1,0.75,0],[1,1,0],[0.75,1,0],[0.5,1,0],[0.25,1,0],[0,1,0],[0,0.75,0],[0,0.5,0],[0,0.25,0]];rounded=1;absoluteArcSize=1;arcSize=2;html=1;strokeColor=none;gradientColor=none;shadow=0;dashed=0;fontSize=12;fontColor=#9E9E9E;align=left;verticalAlign=top;spacing=10;spacingTop=-4;whiteSpace=wrap;fillColor=#E0F2F1;" vertex="1" parent="0VyX5d_8uN8t0-djkHP3-226">
          <mxGeometry x="1264" y="220" width="240" height="290" as="geometry" />
        </mxCell>
        <mxCell id="0VyX5d_8uN8t0-djkHP3-174" value="&lt;b&gt;Google &lt;/b&gt;Cloud Platform - Metabase" style="shadow=0;fontSize=14;align=left;spacing=10;9E9E9E;verticalAlign=top;spacingTop=-4;fontStyle=0;spacingLeft=40;html=1;whiteSpace=wrap;" vertex="1" parent="0VyX5d_8uN8t0-djkHP3-226">
          <mxGeometry x="-10" y="840" width="1000" height="358" as="geometry" />
        </mxCell>
        <mxCell id="0VyX5d_8uN8t0-djkHP3-175" value="" style="shape=mxgraph.gcp2.google_cloud_platform;fillColor=#F6F6F6;strokeColor=none;shadow=0;gradientColor=none;" vertex="1" parent="0VyX5d_8uN8t0-djkHP3-174">
          <mxGeometry width="23" height="20" relative="1" as="geometry">
            <mxPoint x="20" y="10" as="offset" />
          </mxGeometry>
        </mxCell>
        <mxCell id="0VyX5d_8uN8t0-djkHP3-166" value="Application" style="strokeColor=#666666;shadow=1;strokeWidth=1;rounded=1;absoluteArcSize=1;arcSize=2;labelPosition=center;verticalLabelPosition=middle;align=center;verticalAlign=bottom;spacingLeft=0;fontColor=#333333;fontSize=12;whiteSpace=wrap;spacingBottom=2;html=1;fillColor=#f5f5f5;" vertex="1" parent="0VyX5d_8uN8t0-djkHP3-174">
          <mxGeometry x="30.303030303030305" y="83.25581395348836" width="106.06060606060608" height="141.5348837209302" as="geometry" />
        </mxCell>
        <mxCell id="0VyX5d_8uN8t0-djkHP3-167" value="" style="sketch=0;dashed=0;connectable=0;html=1;fillColor=#757575;strokeColor=none;shape=mxgraph.gcp2.application;part=1;" vertex="1" parent="0VyX5d_8uN8t0-djkHP3-166">
          <mxGeometry x="0.5" width="50" height="40" relative="1" as="geometry">
            <mxPoint x="-25" y="15" as="offset" />
          </mxGeometry>
        </mxCell>
        <mxCell id="0VyX5d_8uN8t0-djkHP3-180" value="" style="strokeColor=#666666;shadow=1;strokeWidth=1;rounded=1;absoluteArcSize=1;arcSize=2;fillColor=#f5f5f5;fontColor=#333333;" vertex="1" parent="0VyX5d_8uN8t0-djkHP3-174">
          <mxGeometry x="500.00121212121223" y="120.7241860465116" width="212.12121212121215" height="116.55813953488368" as="geometry" />
        </mxCell>
        <mxCell id="0VyX5d_8uN8t0-djkHP3-181" value="&lt;strong data-renderer-mark=&quot;true&quot;&gt;&lt;font color=&quot;#000000&quot;&gt;opsdash&lt;/font&gt;&lt;/strong&gt;&lt;br&gt;Cloud SQL&lt;hr&gt;&lt;strong data-renderer-mark=&quot;true&quot;&gt;PostgreSQL 9.6.24&lt;br&gt;&lt;/strong&gt;&lt;strong data-renderer-mark=&quot;true&quot;&gt;us-central1-a&lt;/strong&gt;" style="sketch=0;dashed=0;connectable=0;html=1;part=1;labelPosition=right;verticalLabelPosition=middle;align=left;verticalAlign=top;spacingLeft=5;fontColor=#999999;fontSize=12;spacingTop=-8;shape=image;image=data:image/svg+xml,PHN2ZyB4bWxucz0iaHR0cDovL3d3dy53My5vcmcvMjAwMC9zdmciIHhtbG5zOnY9Imh0dHBzOi8vdmVjdGEuaW8vbmFubyIgd2lkdGg9IjE0LjY1OTk5OTg0NzQxMjExIiBoZWlnaHQ9IjIwIiB2aWV3Qm94PSIwIDAgMTQuNjU5OTk5ODQ3NDEyMTEgMjAiPiYjeGE7CTxzdHlsZSB0eXBlPSJ0ZXh0L2NzcyI+JiN4YTsJLnN0MHtmaWxsOiM0Mjg1ZjQ7fSYjeGE7CS5zdDF7ZmlsbDojNjY5ZGY2O30mI3hhOwkuc3Qye2ZpbGw6I2FlY2JmYTt9JiN4YTsJPC9zdHlsZT4mI3hhOwk8c3R5bGU+JiN4YTsJCS5Ee2ZpbGwtcnVsZTpldmVub2RkfSYjeGE7CTwvc3R5bGU+JiN4YTsJPHBhdGggZD0iTTcuMzMgMTUuMzV2LTMuMDFMMCA4LjQ0djMuMDF6bTAgNC42NXYtMy4wMUwwIDEzLjA5djMuMDF6IiBjbGFzcz0ic3QyIEQiLz4mI3hhOwk8cGF0aCBkPSJNMTQuNjYgOC40NGwtNy4zMyAzLjl2My4wMWw3LjMzLTMuOXptMCA0LjY1bC03LjMzIDMuOVYyMGw3LjMzLTMuOXoiIGNsYXNzPSJzdDEgRCIvPiYjeGE7CTxwYXRoIGQ9Ik03LjMzIDB2My4wMWw3LjMzIDMuOVYzLjl6IiBjbGFzcz0ic3QwIEQiLz4mI3hhOwk8cGF0aCBkPSJNMCA2LjkxbDcuMzMtMy45VjBMMCAzLjl6IiBjbGFzcz0iRCBzdDEiLz4mI3hhOwk8cGF0aCBkPSJNNy4zMyAxMC43OVY3Ljc3TDAgMy44N3YzLjAyeiIgY2xhc3M9IkQgc3QyIi8+JiN4YTsJPHBhdGggZD0iTTE0LjY2IDMuODdsLTcuMzMgMy45djMuMDJsNy4zMy0zLjl6IiBjbGFzcz0iRCBzdDEiLz4mI3hhOzwvc3ZnPg==;" vertex="1" parent="0VyX5d_8uN8t0-djkHP3-180">
          <mxGeometry width="42" height="42" relative="1" as="geometry">
            <mxPoint x="5" y="7" as="offset" />
          </mxGeometry>
        </mxCell>
        <mxCell id="0VyX5d_8uN8t0-djkHP3-274" value="" style="strokeColor=#666666;shadow=1;strokeWidth=1;rounded=1;absoluteArcSize=1;arcSize=2;fillColor=#f5f5f5;fontColor=#333333;" vertex="1" parent="0VyX5d_8uN8t0-djkHP3-174">
          <mxGeometry x="190" y="80" width="280" height="150" as="geometry" />
        </mxCell>
        <mxCell id="0VyX5d_8uN8t0-djkHP3-275" value="&lt;font color=&quot;#000000&quot;&gt;&lt;b&gt;metabase-vm-conteiner&lt;/b&gt;&lt;/font&gt;&lt;br&gt;Compute Engine&lt;hr&gt;" style="sketch=0;dashed=0;connectable=0;html=1;part=1;labelPosition=right;verticalLabelPosition=middle;align=left;verticalAlign=top;spacingLeft=5;fontColor=#999999;fontSize=12;spacingTop=-8;shape=image;image=data:image/svg+xml,PHN2ZyB4bWxucz0iaHR0cDovL3d3dy53My5vcmcvMjAwMC9zdmciIHhtbG5zOnY9Imh0dHBzOi8vdmVjdGEuaW8vbmFubyIgd2lkdGg9IjIwIiBoZWlnaHQ9IjIwIiB2aWV3Qm94PSIwIDAgMjAgMjAiPiYjeGE7CTxzdHlsZSB0eXBlPSJ0ZXh0L2NzcyI+JiN4YTsJLnN0MHtmaWxsOiM0Mjg1ZjQ7fSYjeGE7CS5zdDF7ZmlsbDojNjY5ZGY2O30mI3hhOwkuc3Qye2ZpbGw6I2FlY2JmYTt9JiN4YTsJPC9zdHlsZT4mI3hhOwk8cGF0aCBjbGFzcz0ic3QyIiBkPSJNNyA3aDZ2Nkg3eiIvPiYjeGE7CTxwYXRoIGNsYXNzPSJzdDEiIGQ9Ik05IDBoMnY0SDl6TTUgMGgydjRINXptOCAwaDJ2NGgtMnoiLz4mI3hhOwk8cGF0aCBjbGFzcz0ic3QwIiBkPSJNOSAxNmgydjRIOXptLTQgMGgydjRINXptOCAwaDJ2NGgtMnptMy01VjloNHYyem0wIDR2LTJoNHYyem0wLThWNWg0djJ6Ii8+JiN4YTsJPHBhdGggY2xhc3M9InN0MSIgZD0iTTAgMTFWOWg0djJ6bTAgNHYtMmg0djJ6bTAtOFY1aDR2MnoiLz4mI3hhOwk8cGF0aCBjbGFzcz0ic3QyIiBkPSJNMyAzdjE0aDE0VjN6bTEyIDEySDVWNWgxMHoiLz4mI3hhOwk8cGF0aCBjbGFzcz0ic3QxIiBkPSJNMTAgMTBsLTMgM2g2eiIvPiYjeGE7CTxwYXRoIGNsYXNzPSJzdDAiIGQ9Ik0xMyA3bC0zIDMgMyAzeiIvPiYjeGE7PC9zdmc+;" vertex="1" parent="0VyX5d_8uN8t0-djkHP3-274">
          <mxGeometry width="42" height="42" relative="1" as="geometry">
            <mxPoint x="5" y="7" as="offset" />
          </mxGeometry>
        </mxCell>
        <mxCell id="0VyX5d_8uN8t0-djkHP3-277" value="" style="strokeColor=#666666;shadow=1;strokeWidth=1;rounded=1;absoluteArcSize=1;arcSize=2;fillColor=#f5f5f5;fontColor=#333333;" vertex="1" parent="0VyX5d_8uN8t0-djkHP3-174">
          <mxGeometry x="200" y="159.64" width="270" height="160" as="geometry" />
        </mxCell>
        <mxCell id="0VyX5d_8uN8t0-djkHP3-278" value="&lt;b&gt;&lt;font color=&quot;#000000&quot;&gt;metabase/metabase:v0.44.6.&lt;/font&gt;&lt;/b&gt;&lt;br&gt;Container-&lt;br&gt;Optimized OS&lt;br&gt;&lt;br&gt; imagem do dockerhub " style="editableCssRules=.*;html=1;fontColor=#999999;shape=image;verticalLabelPosition=middle;labelBackgroundColor=#ffffff;verticalAlign=middle;labelPosition=right;align=left;spacingLeft=20;part=1;points=[];imageAspect=0;image=data:image/svg+xml,PHN2ZyB4bWxucz0iaHR0cDovL3d3dy53My5vcmcvMjAwMC9zdmciIHhtbG5zOnY9Imh0dHBzOi8vdmVjdGEuaW8vbmFubyIgd2lkdGg9IjIwIiBoZWlnaHQ9IjIwIiB2aWV3Qm94PSIwIDAgMjAgMjAiPiYjeGE7CTxzdHlsZSB0eXBlPSJ0ZXh0L2NzcyI+JiN4YTsJLnN0MHtmaWxsOiM0Mjg1ZjQ7fSYjeGE7CTwvc3R5bGU+JiN4YTsJPHBhdGggY2xhc3M9InN0MCIgZD0iTTEwIDBhMTAgMTAgMCAxIDAgMTAgMTBoMEExMCAxMCAwIDAgMCAxMCAwem0wIDE4YTggOCAwIDAgMS00LjE4LTEuMThsMy41OC0yLjA3aDB2LTQuNUw1LjUxIDh2NC41MmwyLjc1IDEuNTktMy40NiAyQTggOCAwIDAgMSA2LjA4IDN2NGgwTDEwIDkuMjggMTMuOSA3IDEwIDQuNzcgNy4yNCA2LjM2VjIuNDdhOCA4IDAgMCAxIDEwLjMxIDQuNyA4LjEgOC4xIDAgMCAxIC41MSAyLjgzdi4wN0wxNC40NiA4aDBsLTMuOSAyLjI2djQuNTFsMy45LTIuMjVWOS4zNGwzLjQ1IDJBOCA4IDAgMCAxIDEwIDE4eiIvPiYjeGE7PC9zdmc+;" vertex="1" parent="0VyX5d_8uN8t0-djkHP3-277">
          <mxGeometry width="30" height="30" relative="1" as="geometry">
            <mxPoint x="15" y="15" as="offset" />
          </mxGeometry>
        </mxCell>
        <mxCell id="0VyX5d_8uN8t0-djkHP3-283" value="" style="strokeColor=#666666;shadow=1;strokeWidth=1;rounded=1;absoluteArcSize=1;arcSize=2;fillColor=#f5f5f5;fontColor=#333333;" vertex="1" parent="0VyX5d_8uN8t0-djkHP3-174">
          <mxGeometry x="760" y="130" width="230" height="60" as="geometry" />
        </mxCell>
        <mxCell id="0VyX5d_8uN8t0-djkHP3-284" value="&lt;font color=&quot;#000000&quot;&gt;&lt;b&gt;Metabase&lt;/b&gt;&lt;/font&gt;&lt;br&gt;Cloud Load Balancing" style="editableCssRules=.*;html=1;fontColor=#999999;shape=image;verticalLabelPosition=middle;labelBackgroundColor=#ffffff;verticalAlign=middle;labelPosition=right;align=left;spacingLeft=20;part=1;points=[];imageAspect=0;image=data:image/svg+xml,PHN2ZyB4bWxucz0iaHR0cDovL3d3dy53My5vcmcvMjAwMC9zdmciIHhtbG5zOnY9Imh0dHBzOi8vdmVjdGEuaW8vbmFubyIgd2lkdGg9IjIwIiBoZWlnaHQ9IjIwIiB2aWV3Qm94PSIwIDAgMjAgMjAiPiYjeGE7CTxzdHlsZSB0eXBlPSJ0ZXh0L2NzcyI+JiN4YTsJLnN0MHtmaWxsOiM0Mjg1ZjQ7fSYjeGE7CS5zdDF7ZmlsbDojNjY5ZGY2O30mI3hhOwkuc3Qye2ZpbGw6I2FlY2JmYTt9JiN4YTsJPC9zdHlsZT4mI3hhOwk8cGF0aCBjbGFzcz0ic3QxIiBkPSJNMTYgMTBoMnY0aC0yem0tNyAwaDJ2NEg5em0tNyAwaDJ2NEgyeiIvPiYjeGE7CTxwYXRoIGNsYXNzPSJzdDAiIGQ9Ik05IDVoMnY0SDl6Ii8+JiN4YTsJPHBhdGggY2xhc3M9InN0MSIgZD0iTTIgOWgxNnYySDJ6Ii8+JiN4YTsJPHBhdGggY2xhc3M9InN0MiIgZD0iTTQgMGgxMnY1SDR6Ii8+JiN4YTsJPHBhdGggY2xhc3M9InN0MSIgZD0iTTEwIDBoNnY1aC02eiIvPiYjeGE7CTxwYXRoIGNsYXNzPSJzdDIiIGQ9Ik0xNCAxNGg2djZoLTZ6TTAgMTRoNnY2SDB6Ii8+JiN4YTsJPHBhdGggY2xhc3M9InN0MSIgZD0iTTMgMTRoM3Y2SDN6Ii8+JiN4YTsJPHBhdGggY2xhc3M9InN0MiIgZD0iTTcgMTRoNnY2SDd6Ii8+JiN4YTsJPHBhdGggY2xhc3M9InN0MSIgZD0iTTEwIDE0aDN2NmgtM3ptNyAwaDN2NmgtM3oiLz4mI3hhOzwvc3ZnPg==;" vertex="1" parent="0VyX5d_8uN8t0-djkHP3-283">
          <mxGeometry width="30" height="30" relative="1" as="geometry">
            <mxPoint x="15" y="15" as="offset" />
          </mxGeometry>
        </mxCell>
        <mxCell id="0VyX5d_8uN8t0-djkHP3-176" value="" style="shape=image;imageAspect=0;aspect=fixed;verticalLabelPosition=bottom;verticalAlign=top;image=data:image/png,iVBORw0KGgoAAAANSUhEUgAAAOEAAABgCAYAAADrXxUHAAAeQUlEQVR4Xu2dCZRcRdXHb89kkslKIgrKorIoS9hklS0YPSq7iriBKEZ2ZFcQlT0CHwocEY5CxAUVPaig4HpQEdlFBSKoCEbZMSRkn5nM0vPVr7pvz+03r997vc30DPXOyelMd716VffW/+5VLzfoLglXoECgwKhRIBdAOGq0Dw8OFPAUCCAMCyFQYJQpEEA4ygwIjw8UCCAMayBQYJQpEEA4ygwIjw8UCCAMayBQYJQpEEA4ygwIjw8UCCAMayBQYJQpEEA4ygwIjw8UCCAMayBQYJQpEEA4ygwIjw8UCCAMayBQYJQpEEA4ygwIjw8UCCAMayBQYJQpkBsYzJe2MrVJrmw4eRmU6HfNGC/Pibva8n2Fr9smNuOxoc9AgZagQG5wYO0QAgaHFnt/+9D4JiQMtT/DNLi/EtASwWd/DEDMQOnQZCxSINdX3NTrgTYwNIWsIOSONCC2VdB0+rSR0LZjkTlhzK8MCuRWOBBOKc41qvFK5qgB5zCyGI1ZE8kq9e36VXAD4gDUmqgbbhoDFChpwtJCz/cOG/bAYH1Ia88lobjg8w0MFNrQNt/W4f+fNz5qkkk8BugchhgoUJEC5T4hC78IgJGk2eoi2GZ4AVAuBPrbpjktGDThSPIjPGtkKVAGwpXF4Ee+yjG0JbSvtq+Z+dXDesu3TQ3maJU8Cc3HDgU8CHud89UzcaJcvuBGeXbZGulrnyz5oqfYlusakdl0DHTL9ltuLEcevK9MQ/MV0xOYwu3t9ZnDIzKB8JBAgRop4H3CJd190jm5Qw46Zb488mKP9E+aLjPbp0k+N1FW9r8sE9qK+bqYh7S1dyY+urcvxR90d9N/R9dy+ehum8sFZxznQOi+i94WcFgji8NtrU4Brwn7nRmKEXjgyRfJwtWdkp8ww4+7I++QkKvWoIyZ8mDRYB3WlyKtXfp6l8m83TaU+SfME6K1CsJ8eyGNGaKjrb6UwvhqpUAJhBid+0dBONjjvm2ACqoShN4cHci5tOWA5NoLAA4grJXF4b5Wp0AAYatzKIxv3FMggHDcszhMsNUpEEDY6hwK4xv3FAggHPcsDhNsdQoEELY6h8L4xj0FAgjHPYvDBFudAgGErc6hML5xT4EAwnHP4jDBVqdAAGGrcyiMb9xTIIBw3LM4TLDVKRBA2OocCuMb9xQIIBz3LA4TbHUKBBC2OofC+MY9BQIIxz2LwwRbnQIZQMgUGrCdqYwSkR27gx3S17e0tJ8wbGVq9WUTxtdICowqCAcGet3RFRw4XL6p128pLuI0bOptJLtDX61IgQwgbIAWZFNv2a764WdX2J31AYStuFTCmJpFgRQQFs+W0Z3xNY6ir60AZH9cBlcJkPHHWwQQ1kjocNuYpEAmEPblOqRj0AGyqNH4u9bL91O64kGoPiHNRsIc5eDhcKJbrRwdfl9WemZtV2lk9d7fuBnX11N15qialVVqxnhNaE3S+nzCRYsWyY033lhQsrnyN0tZ8kybNk3WWWcd2WSTTWTjjTeWV73qVTJ9+vTS6d+0BYwwd6I7AnI8Xr29+OGFOfLZaOGj/b744ovyla98Rd73vvfJrrvuWkZKPW2dL1etWiUvv/yyTJmiL2NIpjo8U95oP3FgbPS8mrkWMoDQL82EMQAm+3v0b3vrEPAIyujV7s45rccnfOCBBzyzZ86c6bvs66t8ROOyZctkxYoV8trXvlbe+ta3yjHHHCP77LNPaWEqEO1nMxkw0n3bhcuzGy1s6J9/zzzzjGyxxRZy9dVXy3HHHVc2TRUEAOXb3/62fPnLX84Ewq6uLtlqq61k8803l1122UV23313ed3rXifLly8v8b70OoUxdFZtKgiHIpgi3T3dnpiTOyfXvHYs+PIDPcK5pe3uhO2+lc/JvLdt5o88rNYn/Otf/yrveMc75KKLLpJ3vvOdiWPjJVSA8Ec/+pHcd9998qc//Uk+/elPy1lnnVW2EBq9OGsmWINvjC7YRmsM1Ur//ve/ZY899pBLLrlE5s2bN0wT6nO/+c1vyhe/+EVvoSRdqr2xdLq7u6W/v98L0lNPPVXe8573lG5tloZvMBvKuksFIa0Bzk7rT23aOPrbJkl+5fMyd5tN5MxjP1oCYdYjDwHhTjvtJL/61a/k3e9+d+o4YRTMfP755+Xzn/+8/OIXv5BzzjlHTjjhBH9vM8y01EGNUAO00J133im///3v5eSTT/aapJGXBeHOO+8sl19+eSwIlc6AEG2ZJAys+Wrb8f3//vc/OfPMM+X444/3Wn0s+onZAjMrXpBbzjlc9tl6C/+mJD0YH43F68sac1D+oEx37lyHoG0L/hgvp+F5aS+EURDefPPN3izNcsEstCK+y8c//nF54YUX5Oc//7lstNFG/vbxqgmZ29e//nUvfLACNttssyzkqroNmrASCAuCveCTAsLLLrvM++Z6dXR0SE9PT5nvWglcaMTFixf7mADm6Vj06TOD8NbzjpA5s7csAY5zuTmWN5s7ncxDfQUM/dn3UDQThGgEgAYQMU0//OEPy/XXXy+f+MQnRH+reuWNgRtYzJjjLFwCVJMmTWrKqOsBoYKUT/xAvTR4E9WaAHHChAny4IMPet6NNUumahACmFvueqREmE7hlO76rx7plPWmtsneO25bAmIzQagBBBj2n//8R971rnfJQQcd5CN64xmEukgRPpjkjfYJdSXUA0Iiprvttpu85jWvKS2sqVOnyj333CPPPvus992jZilg/epXvypvf/vb/T3Nmlf9K314D5l8wr4ViwVNuLPThGjAuR89QxYNFHRghzsqf0Wd0fx1XKB0Ra5bTtxlG7nwdF4IU3wrk3tHBuZuM8xRXYzMAa1wyCGH+IjbVVddNSb9iqyLw5p1zfSf6gEhKQv8RASjXoy1ra1NiISfd955Pq1hgQZwjz32WDnttNPGHP+q0oQKwrcddb4syk8V3rg0saNN+ibViUJH6c4lz8gRc2f76OhU/AXe7utAyCu7uZLeRVGLT0ifugjxB9///vd7HwYQWsYro2kLo5HCSGMWmZpK+JX//Oc/S/e98Y1vFP7tt99+pWBBJelsgUC+k9D+9ttvXwq50/ff/vY3+fvf/y7//e9//TNe/epX+9zbtttu6yOEXAgVrjRfluc99dRTfvykZuLaR4FKvzp32jNO7ufTznvdddeVrbfe2vt3a9as8aZ9XGDG0j7OJwRgpC3w79Uq0eAMQPzJT37io9nkDC2v8COhk+2f+x977DFZuXLlMDmFDxmdP9FjeKxBHnuTjoHfaPfII4/4+d97772eN6TI0MTQAIHO32pxJfGmZhA+lZvl+m2Xzj734hb3CrV6rr4JXS5PuLK0i0JByLsJs7wQphYQ2oUGQQ899FBPPKsJ47QGSf61a9d6JhGZ48K0I8TOosC0XX/99b2pN2vWLO9nErmlr7QFf+2118qnPvUpHzB5+umn5Xvf+5787Gc/K/X/hje8QTo7O+Xxxx/3fh39f/KTn5RTTjnFm26VnhHljT6HfjbddNNhrLPztuBmXNdcc43cf//9HoDrrbeeFwIqqMjBqqCABpiQgCWaoqgVhPocQAqv4IWOVX1dhIMKJfUNP/axj3kNSsCHizwyQvI3v/mND8wh5K677jo/ry984Qteo1rw048tcvja174m3/jGN/x3CBz4zz9SJ/AdHxVhccQRR8iJJ55YZj7HmclVgZDADD6hakKS7JSydfYXtFWt1/LJ/dLeVQDhFU4T+tei5XoFEA46AjTDHLULDU14wAEHyF577eVBGGWAMhUQYSYRzNhggw28Rpo9e7YHF/fAAGXGT3/6Ux86Z6H+4Q9/qJgKsOO44oorBIAA5ieffNJrxA9+8IMyZ84cD5Z8Pu8XHQxeuHChB8Rvf/tbL3WJeGZNN7CIPve5z8mf//zn2OhonPAhqc4CZQwUOKDlGV8U+AgoLIQ77rjDC4eLL764bhAqmKzlgvsAvQGUaigEk4JQNRC8OfLIIz297AWt3vzmN8vtt99eAhPCmKgx0XKNsqrAoJ+HHnpIzj77bFmyZIl/tj6XNgjHaEQXa4A1glZHEFfyU+sGYY9DjDNIa8Vf6b6uVS/ISXvM9iDMqTnqfuXdiVwTEp5QryaEcQAQyUW43EpXJZxqBKJw+juMYFFaRqnE5DdycR/4wAfk9NNP93nIuMsueMBBYIigBGPZYYcdPCD1OZiEWmaHVOfeb33rW3LuuefKnnvu6cP0aeYoY8AEPOOMM7zpFgfcqK9I6uekk07yoENQIBAQBLoQlUZ2kSFEEA6NNkd5hgpN5qJg4RMNCS+VVwpeBaEdH3xDcwEe/R76IjgBob34HbACULRc9LnKfwWiBaUKcAQm5n/cVTcI2fjX4xDSWRibNysHp0yWXFe3dEyc5c3VNW2VM4lUzayZUkhSHL/dm+Ti44+SmUVNqAMmSprkE2JqUIKWlCeMC0KoxkP7fPazn/WLmGCAto1Krrg+kqQPjEYCoh3UV0lqDwgvuOACue222/x9LPSki/EABBY6lSkAhAWni5B740CpmjAJhPrcl156yWti/D3GxWdSfa7eV29gBu1x8MEH++6idCeQhtBUn1B/x5/GvFQNpfyzmjBOG9EeAAFiQKjms64PTG+AiWazMQKrLRknFoDNdyot6J++EH4I1mhRQYboqCuudsl6zRMOM0fLVsmAbLPeVMck5wQ7C7U93ylt/e3uzb/Jr8weaHe29OqlsvdWW/uKGXxCL20IzrgrDoSWMXGa0JoKvi9TS8hvGmiA8JQ98d2tt97qzYdKizcRERV+ZDHBWNWYWUD4y1/+UnbcccfUx6nWZeExB7QaQQsbVIhbdEkgVLrqAsT8wtT98Y9/7EsDs6Zv6gEhvMEi0OqnqFDBNKZEERAqgDAF8U+hXTRXGKcJsSTUlFUw4c9jPlN9w6XPxa+lGkutEG0P6Ohj//3392MBpLfccouPD1iA8n/mRDANX1I1tDK4MSD0uyv6HFgXy01Xni4bdrbJupOoL628o6F8hRV8SiTshp2F5LGWrFWqmLEgVE3461//2jMuTmPFfYeEO//8872pAVNx4ONMq1Q0JDRA+hE8wVdMu1QTZgWhChr6nj9/vvcnCeSo/1FJc6eB0NO/KAjxeQmCAG7VgJV8Gzu/ekBoo6Pap47n7rvv9mYhAGAcWl1DO+hMIKSSJoyzbDTCTc0xQEL7aiCNfoisEi8gkKM+H88CVAceeKAv/dPgFO0B8g9+8AP54Q9/6AMy1ldcvXq1jzlofXPJrdF31ie9LjuLJsQ37FzytNy54FyZPXOGtOXXuKG6Wr6iT5e2AO3vBGK4kkzQKAj33Xdfb5JhTk6e7MzhyJYmDZjQL441EgvzCv8Cfwdz1Jp/UWlVzfht22aDEDqg+QiEEB5HY5FuSTKdk0BoNR01pu9973vlS1/6khx11FFVVaPUA0LGzkKlAFwBRYqBaC6BKJ2bBRtpI8oOAZAKkag5GgUhwoUCDTQU0WWtoAIsaD3aUyCOcLdbrQDuhz70IQ9Aa37SHp+Rtfed73xHLr300pJW1DEh1L773e+W8acxmtDprd4JfdK1dJEsvO4SD8L+3j55YvFyyU2bJIOr15atYb6zF6GNnGvD9xvMXMcl64sJevfe+tKVsJsKcxSTYMaMGaV8jd5HxIuLnA1RTYiJtNpuu+18dOzwww8XAAwB46Ki2o/9TRd+JWDqM5GcgJ3C8GZoQmUsnyxSAiZoc636qSRI0nxCnStjJwpJFBVfJm3elh71gJB+oJfN7aHx+I60h4LQakHSNQCUCKkCoxIIuR/thfuB4MVVsAE3pSvajsDa0qVL/dRUq3EvlgHC3l5WgGGm4keyNq0ZC0B5rlYDMcbGgnDJk7Jwwf/Jtg5IL3b3yYGnXiILX3pZpk7ym5OGroiVuqbDlb6tXSPHzN1J5h87z9ek2t31/sYUEOKvACjAFReY0O8w9VggV155pdeamuOJW7BWm3A/ElBLpvgN6UuOCZ8MwME0/AJC2ZhU5MxYKEhHzSlWAi7fV2uO6mJh7ACfqCoFB9///veHmWT2uWkg1HlDowsvvNDnBBFwng0Z9+nVC8IkOtnfGCvAI8/HGuBK8wm5h5wrQibpYg6A0M4bHrP1Dcsg7cKPJO9rfUTGirXCOlVa1g/C4i773o6ukibcdroDodOEh593vdy70lWFJsdlXETVLd6B5T5FcaFLUaAJJ+SLm34zmLMamGFyabsoMNsAK8465kKUYVEGK6G0HUwg9QDT+SQPCJE33HBDb87wD8mHD7HNNtvIo48+6hdyszShHRcmHONha1bSvNJ8QtV4VLyQ7yQJr/1lBWKzQGgFIwIOq4YUECkXaGx/T9KEWUDIugKE+Iqa6EeY3nTTTSWzNwmIpGmIUWgUlz4QzpiqCMuGgVArZlZ1dknP0sflUcxRB8Llq5bLIZfdKA8s65KJ/Wln0nDcQpcc8qZ15Kqzj5UZJkWx0oGQKtW0PCFSEP8LEEZ9BiUU32N2YGLdddddvuoeZlQysyxD0TSAi4Q1EU+0KEDmfkAI6KyWwOzgH3k8pGazQKjaEOGAP0SqplGaEJ+HBffcc89l1oBK62aB0PISeqOVqHaKBmOssIhGR7NqQgWhajL6BESksrA60i7uP+yww8rM0bj7K2rCwoFMhaMq0gIzHPw00O40ngvM3O0DMwVz9NCzLpWHV7gib5cvLL+GH/7bvXalnLHXRnKW2dTLIU+rXYTVm6YJkVbdWa8g1IUZTUsoqGjP1iUiYQAqi69DGyJzAJhoGWF7fAQNAEUT1zrfZgZm7IIkd/aWt7zF+7eE8OvRhLqASa0QlCHPWW3UuF4QIlT0wr/SlIKWBzJPwIWWwa9T3sb59fWAUM1OnT/jIlijR3ZEA2D2byqliNimgdiBcNVg3h0vwWLf/+SLZOHqTpfXm+FPVxsY6HbEd+e/JOYJC8n6jrW9ssqB8NEb5ssWDoRLHAgPu2iBPLTYwK/s7FEPleKP5Qc9VXsCd9aKGSUQWomIKKFk7HZbUhQnUXUGSNzf/e533g/Uzb9p0rDZINTxAkJK6RAqmGZJ80gzR3XBUffKItQqEZ1rFr+wHhCy0HkuBdZUtRAA4RO/lFwo/5KqdaJCuFYQYobjuuDz27wfrseCBQtKwRWtZNLcswoxIqhYESrE4AnBQWqCqXvVQopXDAithOL/LBLqH9EettwrKtksyGA+kTHyklnKw7h3JEDIAkH7sY2HqqG5c+fWDEK7gDU6ikSnQiUL+BphjlL5wnzwpxCYRC+1TI7++Tvqq8flAOvxCXUdIKzZx6g5SbQyKQyKvPnNXnoPbYlQ33DDDX78tpxtyy239N/rHIrR0VeGJoRA1uxEuhP9Iz/IwrWHBVXSbgCQhQGwsi7IkQAh4yU4QT6LoAw75pO0Vlp0VE06dhVAF2gEwKu56tGEmqzH7Fc6q2ZXLaN/VzpXxgrTWjUhdKDwG/+fY0BsrIFoOHlMCuHtThTyziTkKQBBW2saBSAS1NF9knYtNl8TvuSygHpO6Siao1FNCHOfeOIJv0sBImKapvk9gPD1r3+932oU7U8XR1QyEgmzFTOWkVEga4qCqhd1/OPMyqj/w3jQ6h/5yEf87nJbIhcnLNJAaM12jhjkvFZyhZVK1uJo2wgQ2v2Elq5Zcrb1glB9aoT10Ucf7XmO/wn4VLMBMrQi64I8NGYnaSnoZXmgdamUIlLITU7T0rL5IGwhnzDKSKQUxc/8o3wNP8QyL7qA8VHwvf7yl7+UJYRVy9J/dDOoBaFtF5eXBBz4dJx5o9uEdMzarwWxbi4lionJhK/BGKM+UVSDZQGhChXoQnKZxDNbk2wO1got/V7nBQjZ2dGIrUxZTf8405DvatGEyivmw1zwDe0uFoCl59vSVrexxQk99RXRgmhPu3GY8Y0sCJVKZe+iKGTh7eG/zQrMRBcjC4ddAgRcSD8QjtfypDjGU3z7mc98xucX8Qm4bP4sqg1JcpMuYHcD+SxN9MMUPajYjim6z8+aYHHml9a+YoKy+4K6Sbu1Kg7oPC9r2RrPZH7kO5HelAXaukerpe3iQ2uw4BAM1Hk2YlNvNaZwVAjVA0L6QliTE8Ysh3eqEdNcEuijtanwB6tL94SqwG4BEA6RdqRBqOYA5gZBAMLxLDK7qzrKeHwVNA2AZX8gJqMeL4EvQBQN6cihwjCNow8oeWL7D4ENqifw1yoBXTUhuUjdewbDLWABHlUXf/zjH32EjjHhr2myWses0bxazFEVLiqIABW+IWPB5MVHIrqnexF17hz3QDCHiDN7CZm73RoUp6myHm8x0iBUIOsn+WUKPdDsmJz2aI24sSkAaUexBvxHe6rQtkGc3MBgfpD0BPWbB7oUxWMvrJDVOWpWBmWSO2ZprUuT9/e8LLedd7Tsu9N2fmf9nMNOk0X9U/xvtNFrDSmKm6+WjV2KoquYJ3zgxbhymfIdBZNcqmJNz0o5ad8dhipm3G3spGA7U9p+Qk1RYMah1bJcEEHNCxY1lRGAiKJuEvBRraYL8+GHH/Z5IhL9ABJQIe1wugEI5ip1gWgMqiIIU2PGcZQC26RY2BQKaIGwHSsak0ocCsypm9RNvVoLCXj/9a9/eXOYZ+AzUSuqRcs2iJEkpXkOoKWiI+7cUWvyMj4ikxRPI6QIOCBo8BXt3AnikEJgZwG0pHIHIYUPpFuDdK5WgyJ40OAch6GXVqXAy0p+aBqP7TMwJREMerwjvhv+mS0GrwQkO2aAiNCjAAOrSXOZ8EVLGvlkPUEbhBXxAFIadjOwAruUolhRLOUAhLffca8/V5TjB7ko8VS47LnDprLRrMK7HmjHzpxlOZesNqOfOdgtc3bfVTonu8NbHQjvuv/Bsv4qEY4+Jrmnzpo+VebsvH3pPFNfJUP5WkrpGkTF3IPxOMWVzLAkxhEWh4AsBj3ox7ZXCQa5sOlhIGDQi8JiiL333nv7+wEckg/i8496UhYwjjzStJJPSGgbH5XrH//4h29PPSr980nfPIPic4BoCwbSFia/M3ZMomrOHWXumGTk6ijDQ+MhDLgYFxeaj4OndN4sRMAET6Jaw/qVuAPW7KYv+KC85O9a+Gk1DpoLOtmLsQFEa+ZnoZ+25/R2UlXQAx7ZdYD5TuUSawm6pW2CzrkFPDhhoisydrWe7o6yw321Ywqq6WgyB+Y6ZPQWX43Go/mtcMADRdfub9eOrUjsA8wX99BF99Vr++ik1zrgTp1SKFPjygpC2rLQ1R+qlmkQVsvKtI+oT2g1J/9HKkZL0fQYCp6vTruePwMzbMTMhqiVDjY6yqKuVOqm22VsYMQGlJIWky5OtBtjTAt6WJ+XZ+huhujYmJs97oMx6Jzjcng6Ru3T/u15XzxGRL9P87+ic7bjhl52ngoky480OtjxMRb6j1sDtNOSxehG7kpz8GVrcUzDBOTyYPLgKxZU97pj6icWtnBQaaO/A+TCHsLhF+2SLvrw/RWP7WtzJltSrWgcwfnO+kFpTLPmCvemhb21fdRU0+fyaSV6XH4rbYzRXRS29CwapNG56uKpBoSWfmmLL23e9rlx84/jA+2ibS29orxJ42Xc2rLa1vLItq0UWEpaqzr2uGh11A9P8svtM7wm5AvPDN25EDuKoVeZDf0cd9Th8HYDg8lvcfJaoYg6TlirhegKJKsdEpFvfoxb4HHS2xJVQRuNjirDLaij47BOuf0tCkK7SCz445hbDQjtgs8KQn1mdC5RmljhUGlM+n1cnaf2b8GfNsZKIEwSyklR7Urrxq6TOD5HaWT/TlrTub6IXaEayC4ADuD1BdQGpKop7YC1yLp0YG9eX7ftdtiX6kTLp+gHFwV/hu1LWQE2ltrVsp9wLM0vjDWeAjkNzERf7KJgHIp9Viah+oDRFhbQnB8ad+kZUBakKjVK4H+FcC+A8BXC6Mg0fYpCfTI924U2qtWsSaGAtP6a/714ZH0UsFGtWonEzgCNqMfCn1mOwB9PbAsgHE/czD4XXzEz1Lzycfb4amoH81kCX5k9WniBC1cpsln8W++3zQGv9wEDCD1ZAgizL9zx1DLnXML0s/jG04xbeC4k0Tl6kT2LmsOqNUjVwtMMQ4tQIICwhZYEW6o404VXf9lNny00xDCUJlAggLAJRK21S5K7muCt5qDdWp8X7msNCgQQtgYf/ChsEruW3FgLTSUMpQoKBBBWQazQNFCgGRQIIGwGVUOfgQJVUCCAsApihaaBAs2gQABhM6ga+gwUqIICAYRVECs0DRRoBgUCCJtB1dBnoEAVFAggrIJYoWmgQDMoEEDYDKqGPgMFqqBAAGEVxApNAwWaQYEAwmZQNfQZKFAFBf4fU4afSd+hWu8AAAAASUVORK5CYII=;" vertex="1" parent="0VyX5d_8uN8t0-djkHP3-226">
          <mxGeometry x="40" y="86.23" width="87.96" height="37.53" as="geometry" />
        </mxCell>
        <mxCell id="0VyX5d_8uN8t0-djkHP3-210" value="" style="strokeColor=#666666;shadow=1;strokeWidth=1;rounded=1;absoluteArcSize=1;arcSize=2;fillColor=#f5f5f5;fontColor=#333333;" vertex="1" parent="0VyX5d_8uN8t0-djkHP3-226">
          <mxGeometry x="169.99665501165498" y="18.95491694352158" width="214.24242424242428" height="120.46511627906973" as="geometry" />
        </mxCell>
        <mxCell id="0VyX5d_8uN8t0-djkHP3-211" value="&lt;font color=&quot;#000000&quot;&gt;Name&lt;/font&gt;&lt;br&gt;GKE on-Prem&lt;br&gt;&lt;hr&gt;&lt;font style=&quot;font-size: 11px&quot;&gt;Attribute Name&lt;/font&gt;" style="sketch=0;dashed=0;connectable=1;html=1;part=1;labelPosition=right;verticalLabelPosition=middle;align=left;verticalAlign=top;spacingLeft=5;fontColor=#999999;fontSize=12;spacingTop=-8;shape=image;image=data:image/svg+xml,PHN2ZyB4bWxucz0iaHR0cDovL3d3dy53My5vcmcvMjAwMC9zdmciIHhtbG5zOnY9Imh0dHBzOi8vdmVjdGEuaW8vbmFubyIgd2lkdGg9IjE0LjY1OTk5OTg0NzQxMjExIiBoZWlnaHQ9IjIwIiB2aWV3Qm94PSIwIDAgMTQuNjU5OTk5ODQ3NDEyMTEgMjAiPiYjeGE7CTxzdHlsZSB0eXBlPSJ0ZXh0L2NzcyI+JiN4YTsJLnN0MHtmaWxsOiM0Mjg1ZjQ7fSYjeGE7CS5zdDF7ZmlsbDojNjY5ZGY2O30mI3hhOwkuc3Qye2ZpbGw6I2FlY2JmYTt9JiN4YTsJPC9zdHlsZT4mI3hhOwk8c3R5bGU+JiN4YTsJCS5Ee2ZpbGwtcnVsZTpldmVub2RkfSYjeGE7CTwvc3R5bGU+JiN4YTsJPHBhdGggZD0iTTcuMzMgMTUuMzV2LTMuMDFMMCA4LjQ0djMuMDF6bTAgNC42NXYtMy4wMUwwIDEzLjA5djMuMDF6IiBjbGFzcz0ic3QyIEQiLz4mI3hhOwk8cGF0aCBkPSJNMTQuNjYgOC40NGwtNy4zMyAzLjl2My4wMWw3LjMzLTMuOXptMCA0LjY1bC03LjMzIDMuOVYyMGw3LjMzLTMuOXoiIGNsYXNzPSJzdDEgRCIvPiYjeGE7CTxwYXRoIGQ9Ik03LjMzIDB2My4wMWw3LjMzIDMuOVYzLjl6IiBjbGFzcz0ic3QwIEQiLz4mI3hhOwk8cGF0aCBkPSJNMCA2LjkxbDcuMzMtMy45VjBMMCAzLjl6IiBjbGFzcz0iRCBzdDEiLz4mI3hhOwk8cGF0aCBkPSJNNy4zMyAxMC43OVY3Ljc3TDAgMy44N3YzLjAyeiIgY2xhc3M9IkQgc3QyIi8+JiN4YTsJPHBhdGggZD0iTTE0LjY2IDMuODdsLTcuMzMgMy45djMuMDJsNy4zMy0zLjl6IiBjbGFzcz0iRCBzdDEiLz4mI3hhOzwvc3ZnPg==;movable=1;resizable=1;rotatable=1;deletable=1;editable=1;locked=0;" vertex="1" parent="0VyX5d_8uN8t0-djkHP3-210">
          <mxGeometry width="42" height="42" relative="1" as="geometry">
            <mxPoint x="5" y="7" as="offset" />
          </mxGeometry>
        </mxCell>
        <mxCell id="0VyX5d_8uN8t0-djkHP3-256" style="edgeStyle=orthogonalEdgeStyle;rounded=0;orthogonalLoop=1;jettySize=auto;html=1;exitX=1;exitY=0.5;exitDx=0;exitDy=0;entryX=0;entryY=0.442;entryDx=0;entryDy=0;entryPerimeter=0;" edge="1" parent="0VyX5d_8uN8t0-djkHP3-226" source="0VyX5d_8uN8t0-djkHP3-206" target="0VyX5d_8uN8t0-djkHP3-246">
          <mxGeometry relative="1" as="geometry" />
        </mxCell>
        <mxCell id="0VyX5d_8uN8t0-djkHP3-206" value="&lt;b&gt;Google &lt;/b&gt;Cloud Platform - RapidPro" style="shadow=0;fontSize=14;align=left;spacing=10;9E9E9E;verticalAlign=top;spacingTop=-4;fontStyle=0;spacingLeft=40;html=1;whiteSpace=wrap;" vertex="1" parent="0VyX5d_8uN8t0-djkHP3-226">
          <mxGeometry x="-10" y="-80.01" width="1010" height="370" as="geometry" />
        </mxCell>
        <mxCell id="0VyX5d_8uN8t0-djkHP3-207" value="" style="shape=mxgraph.gcp2.google_cloud_platform;fillColor=#F6F6F6;strokeColor=none;shadow=0;gradientColor=none;" vertex="1" parent="0VyX5d_8uN8t0-djkHP3-206">
          <mxGeometry width="23" height="20" relative="1" as="geometry">
            <mxPoint x="20" y="10" as="offset" />
          </mxGeometry>
        </mxCell>
        <mxCell id="0VyX5d_8uN8t0-djkHP3-208" value="Application" style="strokeColor=#666666;shadow=1;strokeWidth=1;rounded=1;absoluteArcSize=1;arcSize=2;labelPosition=center;verticalLabelPosition=middle;align=center;verticalAlign=bottom;spacingLeft=0;fontColor=#333333;fontSize=12;whiteSpace=wrap;spacingBottom=2;html=1;fillColor=#f5f5f5;" vertex="1" parent="0VyX5d_8uN8t0-djkHP3-206">
          <mxGeometry x="33.99606060606061" y="86.04651162790697" width="107.12121212121214" height="146.27906976744183" as="geometry" />
        </mxCell>
        <mxCell id="0VyX5d_8uN8t0-djkHP3-209" value="" style="sketch=0;dashed=0;connectable=0;html=1;fillColor=#757575;strokeColor=none;shape=mxgraph.gcp2.application;part=1;" vertex="1" parent="0VyX5d_8uN8t0-djkHP3-208">
          <mxGeometry x="0.5" width="50" height="40" relative="1" as="geometry">
            <mxPoint x="-25" y="15" as="offset" />
          </mxGeometry>
        </mxCell>
        <mxCell id="0VyX5d_8uN8t0-djkHP3-260" value="" style="shape=image;imageAspect=0;aspect=fixed;verticalLabelPosition=bottom;verticalAlign=top;image=data:image/png,iVBORw0KGgoAAAANSUhEUgAAAOEAAABgCAYAAADrXxUHAAAeQUlEQVR4Xu2dCZRcRdXHb89kkslKIgrKorIoS9hklS0YPSq7iriBKEZ2ZFcQlT0CHwocEY5CxAUVPaig4HpQEdlFBSKoCEbZMSRkn5nM0vPVr7pvz+03r997vc30DPXOyelMd716VffW/+5VLzfoLglXoECgwKhRIBdAOGq0Dw8OFPAUCCAMCyFQYJQpEEA4ygwIjw8UCCAMayBQYJQpEEA4ygwIjw8UCCAMayBQYJQpEEA4ygwIjw8UCCAMayBQYJQpEEA4ygwIjw8UCCAMayBQYJQpEEA4ygwIjw8UCCAMayBQYJQpEEA4ygwIjw8UCCAMayBQYJQpkBsYzJe2MrVJrmw4eRmU6HfNGC/Pibva8n2Fr9smNuOxoc9AgZagQG5wYO0QAgaHFnt/+9D4JiQMtT/DNLi/EtASwWd/DEDMQOnQZCxSINdX3NTrgTYwNIWsIOSONCC2VdB0+rSR0LZjkTlhzK8MCuRWOBBOKc41qvFK5qgB5zCyGI1ZE8kq9e36VXAD4gDUmqgbbhoDFChpwtJCz/cOG/bAYH1Ia88lobjg8w0MFNrQNt/W4f+fNz5qkkk8BugchhgoUJEC5T4hC78IgJGk2eoi2GZ4AVAuBPrbpjktGDThSPIjPGtkKVAGwpXF4Ee+yjG0JbSvtq+Z+dXDesu3TQ3maJU8Cc3HDgU8CHud89UzcaJcvuBGeXbZGulrnyz5oqfYlusakdl0DHTL9ltuLEcevK9MQ/MV0xOYwu3t9ZnDIzKB8JBAgRop4H3CJd190jm5Qw46Zb488mKP9E+aLjPbp0k+N1FW9r8sE9qK+bqYh7S1dyY+urcvxR90d9N/R9dy+ehum8sFZxznQOi+i94WcFgji8NtrU4Brwn7nRmKEXjgyRfJwtWdkp8ww4+7I++QkKvWoIyZ8mDRYB3WlyKtXfp6l8m83TaU+SfME6K1CsJ8eyGNGaKjrb6UwvhqpUAJhBid+0dBONjjvm2ACqoShN4cHci5tOWA5NoLAA4grJXF4b5Wp0AAYatzKIxv3FMggHDcszhMsNUpEEDY6hwK4xv3FAggHPcsDhNsdQoEELY6h8L4xj0FAgjHPYvDBFudAgGErc6hML5xT4EAwnHP4jDBVqdAAGGrcyiMb9xTIIBw3LM4TLDVKRBA2OocCuMb9xQIIBz3LA4TbHUKBBC2OofC+MY9BQIIxz2LwwRbnQIZQMgUGrCdqYwSkR27gx3S17e0tJ8wbGVq9WUTxtdICowqCAcGet3RFRw4XL6p128pLuI0bOptJLtDX61IgQwgbIAWZFNv2a764WdX2J31AYStuFTCmJpFgRQQFs+W0Z3xNY6ir60AZH9cBlcJkPHHWwQQ1kjocNuYpEAmEPblOqRj0AGyqNH4u9bL91O64kGoPiHNRsIc5eDhcKJbrRwdfl9WemZtV2lk9d7fuBnX11N15qialVVqxnhNaE3S+nzCRYsWyY033lhQsrnyN0tZ8kybNk3WWWcd2WSTTWTjjTeWV73qVTJ9+vTS6d+0BYwwd6I7AnI8Xr29+OGFOfLZaOGj/b744ovyla98Rd73vvfJrrvuWkZKPW2dL1etWiUvv/yyTJmiL2NIpjo8U95oP3FgbPS8mrkWMoDQL82EMQAm+3v0b3vrEPAIyujV7s45rccnfOCBBzyzZ86c6bvs66t8ROOyZctkxYoV8trXvlbe+ta3yjHHHCP77LNPaWEqEO1nMxkw0n3bhcuzGy1s6J9/zzzzjGyxxRZy9dVXy3HHHVc2TRUEAOXb3/62fPnLX84Ewq6uLtlqq61k8803l1122UV23313ed3rXifLly8v8b70OoUxdFZtKgiHIpgi3T3dnpiTOyfXvHYs+PIDPcK5pe3uhO2+lc/JvLdt5o88rNYn/Otf/yrveMc75KKLLpJ3vvOdiWPjJVSA8Ec/+pHcd9998qc//Uk+/elPy1lnnVW2EBq9OGsmWINvjC7YRmsM1Ur//ve/ZY899pBLLrlE5s2bN0wT6nO/+c1vyhe/+EVvoSRdqr2xdLq7u6W/v98L0lNPPVXe8573lG5tloZvMBvKuksFIa0Bzk7rT23aOPrbJkl+5fMyd5tN5MxjP1oCYdYjDwHhTjvtJL/61a/k3e9+d+o4YRTMfP755+Xzn/+8/OIXv5BzzjlHTjjhBH9vM8y01EGNUAO00J133im///3v5eSTT/aapJGXBeHOO+8sl19+eSwIlc6AEG2ZJAys+Wrb8f3//vc/OfPMM+X444/3Wn0s+onZAjMrXpBbzjlc9tl6C/+mJD0YH43F68sac1D+oEx37lyHoG0L/hgvp+F5aS+EURDefPPN3izNcsEstCK+y8c//nF54YUX5Oc//7lstNFG/vbxqgmZ29e//nUvfLACNttssyzkqroNmrASCAuCveCTAsLLLrvM++Z6dXR0SE9PT5nvWglcaMTFixf7mADm6Vj06TOD8NbzjpA5s7csAY5zuTmWN5s7ncxDfQUM/dn3UDQThGgEgAYQMU0//OEPy/XXXy+f+MQnRH+reuWNgRtYzJjjLFwCVJMmTWrKqOsBoYKUT/xAvTR4E9WaAHHChAny4IMPet6NNUumahACmFvueqREmE7hlO76rx7plPWmtsneO25bAmIzQagBBBj2n//8R971rnfJQQcd5CN64xmEukgRPpjkjfYJdSXUA0Iiprvttpu85jWvKS2sqVOnyj333CPPPvus992jZilg/epXvypvf/vb/T3Nmlf9K314D5l8wr4ViwVNuLPThGjAuR89QxYNFHRghzsqf0Wd0fx1XKB0Ra5bTtxlG7nwdF4IU3wrk3tHBuZuM8xRXYzMAa1wyCGH+IjbVVddNSb9iqyLw5p1zfSf6gEhKQv8RASjXoy1ra1NiISfd955Pq1hgQZwjz32WDnttNPGHP+q0oQKwrcddb4syk8V3rg0saNN+ibViUJH6c4lz8gRc2f76OhU/AXe7utAyCu7uZLeRVGLT0ifugjxB9///vd7HwYQWsYro2kLo5HCSGMWmZpK+JX//Oc/S/e98Y1vFP7tt99+pWBBJelsgUC+k9D+9ttvXwq50/ff/vY3+fvf/y7//e9//TNe/epX+9zbtttu6yOEXAgVrjRfluc99dRTfvykZuLaR4FKvzp32jNO7ufTznvdddeVrbfe2vt3a9as8aZ9XGDG0j7OJwRgpC3w79Uq0eAMQPzJT37io9nkDC2v8COhk+2f+x977DFZuXLlMDmFDxmdP9FjeKxBHnuTjoHfaPfII4/4+d97772eN6TI0MTQAIHO32pxJfGmZhA+lZvl+m2Xzj734hb3CrV6rr4JXS5PuLK0i0JByLsJs7wQphYQ2oUGQQ899FBPPKsJ47QGSf61a9d6JhGZ48K0I8TOosC0XX/99b2pN2vWLO9nErmlr7QFf+2118qnPvUpHzB5+umn5Xvf+5787Gc/K/X/hje8QTo7O+Xxxx/3fh39f/KTn5RTTjnFm26VnhHljT6HfjbddNNhrLPztuBmXNdcc43cf//9HoDrrbeeFwIqqMjBqqCABpiQgCWaoqgVhPocQAqv4IWOVX1dhIMKJfUNP/axj3kNSsCHizwyQvI3v/mND8wh5K677jo/ry984Qteo1rw048tcvja174m3/jGN/x3CBz4zz9SJ/AdHxVhccQRR8iJJ55YZj7HmclVgZDADD6hakKS7JSydfYXtFWt1/LJ/dLeVQDhFU4T+tei5XoFEA46AjTDHLULDU14wAEHyF577eVBGGWAMhUQYSYRzNhggw28Rpo9e7YHF/fAAGXGT3/6Ux86Z6H+4Q9/qJgKsOO44oorBIAA5ieffNJrxA9+8IMyZ84cD5Z8Pu8XHQxeuHChB8Rvf/tbL3WJeGZNN7CIPve5z8mf//zn2OhonPAhqc4CZQwUOKDlGV8U+AgoLIQ77rjDC4eLL764bhAqmKzlgvsAvQGUaigEk4JQNRC8OfLIIz297AWt3vzmN8vtt99eAhPCmKgx0XKNsqrAoJ+HHnpIzj77bFmyZIl/tj6XNgjHaEQXa4A1glZHEFfyU+sGYY9DjDNIa8Vf6b6uVS/ISXvM9iDMqTnqfuXdiVwTEp5QryaEcQAQyUW43EpXJZxqBKJw+juMYFFaRqnE5DdycR/4wAfk9NNP93nIuMsueMBBYIigBGPZYYcdPCD1OZiEWmaHVOfeb33rW3LuuefKnnvu6cP0aeYoY8AEPOOMM7zpFgfcqK9I6uekk07yoENQIBAQBLoQlUZ2kSFEEA6NNkd5hgpN5qJg4RMNCS+VVwpeBaEdH3xDcwEe/R76IjgBob34HbACULRc9LnKfwWiBaUKcAQm5n/cVTcI2fjX4xDSWRibNysHp0yWXFe3dEyc5c3VNW2VM4lUzayZUkhSHL/dm+Ti44+SmUVNqAMmSprkE2JqUIKWlCeMC0KoxkP7fPazn/WLmGCAto1Krrg+kqQPjEYCoh3UV0lqDwgvuOACue222/x9LPSki/EABBY6lSkAhAWni5B740CpmjAJhPrcl156yWti/D3GxWdSfa7eV29gBu1x8MEH++6idCeQhtBUn1B/x5/GvFQNpfyzmjBOG9EeAAFiQKjms64PTG+AiWazMQKrLRknFoDNdyot6J++EH4I1mhRQYboqCuudsl6zRMOM0fLVsmAbLPeVMck5wQ7C7U93ylt/e3uzb/Jr8weaHe29OqlsvdWW/uKGXxCL20IzrgrDoSWMXGa0JoKvi9TS8hvGmiA8JQ98d2tt97qzYdKizcRERV+ZDHBWNWYWUD4y1/+UnbcccfUx6nWZeExB7QaQQsbVIhbdEkgVLrqAsT8wtT98Y9/7EsDs6Zv6gEhvMEi0OqnqFDBNKZEERAqgDAF8U+hXTRXGKcJsSTUlFUw4c9jPlN9w6XPxa+lGkutEG0P6Ohj//3392MBpLfccouPD1iA8n/mRDANX1I1tDK4MSD0uyv6HFgXy01Xni4bdrbJupOoL628o6F8hRV8SiTshp2F5LGWrFWqmLEgVE3461//2jMuTmPFfYeEO//8872pAVNx4ONMq1Q0JDRA+hE8wVdMu1QTZgWhChr6nj9/vvcnCeSo/1FJc6eB0NO/KAjxeQmCAG7VgJV8Gzu/ekBoo6Pap47n7rvv9mYhAGAcWl1DO+hMIKSSJoyzbDTCTc0xQEL7aiCNfoisEi8gkKM+H88CVAceeKAv/dPgFO0B8g9+8AP54Q9/6AMy1ldcvXq1jzlofXPJrdF31ie9LjuLJsQ37FzytNy54FyZPXOGtOXXuKG6Wr6iT5e2AO3vBGK4kkzQKAj33Xdfb5JhTk6e7MzhyJYmDZjQL441EgvzCv8Cfwdz1Jp/UWlVzfht22aDEDqg+QiEEB5HY5FuSTKdk0BoNR01pu9973vlS1/6khx11FFVVaPUA0LGzkKlAFwBRYqBaC6BKJ2bBRtpI8oOAZAKkag5GgUhwoUCDTQU0WWtoAIsaD3aUyCOcLdbrQDuhz70IQ9Aa37SHp+Rtfed73xHLr300pJW1DEh1L773e+W8acxmtDprd4JfdK1dJEsvO4SD8L+3j55YvFyyU2bJIOr15atYb6zF6GNnGvD9xvMXMcl64sJevfe+tKVsJsKcxSTYMaMGaV8jd5HxIuLnA1RTYiJtNpuu+18dOzwww8XAAwB46Ki2o/9TRd+JWDqM5GcgJ3C8GZoQmUsnyxSAiZoc636qSRI0nxCnStjJwpJFBVfJm3elh71gJB+oJfN7aHx+I60h4LQakHSNQCUCKkCoxIIuR/thfuB4MVVsAE3pSvajsDa0qVL/dRUq3EvlgHC3l5WgGGm4keyNq0ZC0B5rlYDMcbGgnDJk7Jwwf/Jtg5IL3b3yYGnXiILX3pZpk7ym5OGroiVuqbDlb6tXSPHzN1J5h87z9ek2t31/sYUEOKvACjAFReY0O8w9VggV155pdeamuOJW7BWm3A/ElBLpvgN6UuOCZ8MwME0/AJC2ZhU5MxYKEhHzSlWAi7fV2uO6mJh7ACfqCoFB9///veHmWT2uWkg1HlDowsvvNDnBBFwng0Z9+nVC8IkOtnfGCvAI8/HGuBK8wm5h5wrQibpYg6A0M4bHrP1Dcsg7cKPJO9rfUTGirXCOlVa1g/C4i773o6ukibcdroDodOEh593vdy70lWFJsdlXETVLd6B5T5FcaFLUaAJJ+SLm34zmLMamGFyabsoMNsAK8465kKUYVEGK6G0HUwg9QDT+SQPCJE33HBDb87wD8mHD7HNNtvIo48+6hdyszShHRcmHONha1bSvNJ8QtV4VLyQ7yQJr/1lBWKzQGgFIwIOq4YUECkXaGx/T9KEWUDIugKE+Iqa6EeY3nTTTSWzNwmIpGmIUWgUlz4QzpiqCMuGgVArZlZ1dknP0sflUcxRB8Llq5bLIZfdKA8s65KJ/Wln0nDcQpcc8qZ15Kqzj5UZJkWx0oGQKtW0PCFSEP8LEEZ9BiUU32N2YGLdddddvuoeZlQysyxD0TSAi4Q1EU+0KEDmfkAI6KyWwOzgH3k8pGazQKjaEOGAP0SqplGaEJ+HBffcc89l1oBK62aB0PISeqOVqHaKBmOssIhGR7NqQgWhajL6BESksrA60i7uP+yww8rM0bj7K2rCwoFMhaMq0gIzHPw00O40ngvM3O0DMwVz9NCzLpWHV7gib5cvLL+GH/7bvXalnLHXRnKW2dTLIU+rXYTVm6YJkVbdWa8g1IUZTUsoqGjP1iUiYQAqi69DGyJzAJhoGWF7fAQNAEUT1zrfZgZm7IIkd/aWt7zF+7eE8OvRhLqASa0QlCHPWW3UuF4QIlT0wr/SlIKWBzJPwIWWwa9T3sb59fWAUM1OnT/jIlijR3ZEA2D2byqliNimgdiBcNVg3h0vwWLf/+SLZOHqTpfXm+FPVxsY6HbEd+e/JOYJC8n6jrW9ssqB8NEb5ssWDoRLHAgPu2iBPLTYwK/s7FEPleKP5Qc9VXsCd9aKGSUQWomIKKFk7HZbUhQnUXUGSNzf/e533g/Uzb9p0rDZINTxAkJK6RAqmGZJ80gzR3XBUffKItQqEZ1rFr+wHhCy0HkuBdZUtRAA4RO/lFwo/5KqdaJCuFYQYobjuuDz27wfrseCBQtKwRWtZNLcswoxIqhYESrE4AnBQWqCqXvVQopXDAithOL/LBLqH9EettwrKtksyGA+kTHyklnKw7h3JEDIAkH7sY2HqqG5c+fWDEK7gDU6ikSnQiUL+BphjlL5wnzwpxCYRC+1TI7++Tvqq8flAOvxCXUdIKzZx6g5SbQyKQyKvPnNXnoPbYlQ33DDDX78tpxtyy239N/rHIrR0VeGJoRA1uxEuhP9Iz/IwrWHBVXSbgCQhQGwsi7IkQAh4yU4QT6LoAw75pO0Vlp0VE06dhVAF2gEwKu56tGEmqzH7Fc6q2ZXLaN/VzpXxgrTWjUhdKDwG/+fY0BsrIFoOHlMCuHtThTyziTkKQBBW2saBSAS1NF9knYtNl8TvuSygHpO6Siao1FNCHOfeOIJv0sBImKapvk9gPD1r3+932oU7U8XR1QyEgmzFTOWkVEga4qCqhd1/OPMyqj/w3jQ6h/5yEf87nJbIhcnLNJAaM12jhjkvFZyhZVK1uJo2wgQ2v2Elq5Zcrb1glB9aoT10Ucf7XmO/wn4VLMBMrQi64I8NGYnaSnoZXmgdamUIlLITU7T0rL5IGwhnzDKSKQUxc/8o3wNP8QyL7qA8VHwvf7yl7+UJYRVy9J/dDOoBaFtF5eXBBz4dJx5o9uEdMzarwWxbi4lionJhK/BGKM+UVSDZQGhChXoQnKZxDNbk2wO1got/V7nBQjZ2dGIrUxZTf8405DvatGEyivmw1zwDe0uFoCl59vSVrexxQk99RXRgmhPu3GY8Y0sCJVKZe+iKGTh7eG/zQrMRBcjC4ddAgRcSD8QjtfypDjGU3z7mc98xucX8Qm4bP4sqg1JcpMuYHcD+SxN9MMUPajYjim6z8+aYHHml9a+YoKy+4K6Sbu1Kg7oPC9r2RrPZH7kO5HelAXaukerpe3iQ2uw4BAM1Hk2YlNvNaZwVAjVA0L6QliTE8Ysh3eqEdNcEuijtanwB6tL94SqwG4BEA6RdqRBqOYA5gZBAMLxLDK7qzrKeHwVNA2AZX8gJqMeL4EvQBQN6cihwjCNow8oeWL7D4ENqifw1yoBXTUhuUjdewbDLWABHlUXf/zjH32EjjHhr2myWses0bxazFEVLiqIABW+IWPB5MVHIrqnexF17hz3QDCHiDN7CZm73RoUp6myHm8x0iBUIOsn+WUKPdDsmJz2aI24sSkAaUexBvxHe6rQtkGc3MBgfpD0BPWbB7oUxWMvrJDVOWpWBmWSO2ZprUuT9/e8LLedd7Tsu9N2fmf9nMNOk0X9U/xvtNFrDSmKm6+WjV2KoquYJ3zgxbhymfIdBZNcqmJNz0o5ad8dhipm3G3spGA7U9p+Qk1RYMah1bJcEEHNCxY1lRGAiKJuEvBRraYL8+GHH/Z5IhL9ABJQIe1wugEI5ip1gWgMqiIIU2PGcZQC26RY2BQKaIGwHSsak0ocCsypm9RNvVoLCXj/9a9/eXOYZ+AzUSuqRcs2iJEkpXkOoKWiI+7cUWvyMj4ikxRPI6QIOCBo8BXt3AnikEJgZwG0pHIHIYUPpFuDdK5WgyJ40OAch6GXVqXAy0p+aBqP7TMwJREMerwjvhv+mS0GrwQkO2aAiNCjAAOrSXOZ8EVLGvlkPUEbhBXxAFIadjOwAruUolhRLOUAhLffca8/V5TjB7ko8VS47LnDprLRrMK7HmjHzpxlOZesNqOfOdgtc3bfVTonu8NbHQjvuv/Bsv4qEY4+Jrmnzpo+VebsvH3pPFNfJUP5WkrpGkTF3IPxOMWVzLAkxhEWh4AsBj3ox7ZXCQa5sOlhIGDQi8JiiL333nv7+wEckg/i8496UhYwjjzStJJPSGgbH5XrH//4h29PPSr980nfPIPic4BoCwbSFia/M3ZMomrOHWXumGTk6ijDQ+MhDLgYFxeaj4OndN4sRMAET6Jaw/qVuAPW7KYv+KC85O9a+Gk1DpoLOtmLsQFEa+ZnoZ+25/R2UlXQAx7ZdYD5TuUSawm6pW2CzrkFPDhhoisydrWe7o6yw321Ywqq6WgyB+Y6ZPQWX43Go/mtcMADRdfub9eOrUjsA8wX99BF99Vr++ik1zrgTp1SKFPjygpC2rLQ1R+qlmkQVsvKtI+oT2g1J/9HKkZL0fQYCp6vTruePwMzbMTMhqiVDjY6yqKuVOqm22VsYMQGlJIWky5OtBtjTAt6WJ+XZ+huhujYmJs97oMx6Jzjcng6Ru3T/u15XzxGRL9P87+ic7bjhl52ngoky480OtjxMRb6j1sDtNOSxehG7kpz8GVrcUzDBOTyYPLgKxZU97pj6icWtnBQaaO/A+TCHsLhF+2SLvrw/RWP7WtzJltSrWgcwfnO+kFpTLPmCvemhb21fdRU0+fyaSV6XH4rbYzRXRS29CwapNG56uKpBoSWfmmLL23e9rlx84/jA+2ibS29orxJ42Xc2rLa1vLItq0UWEpaqzr2uGh11A9P8svtM7wm5AvPDN25EDuKoVeZDf0cd9Th8HYDg8lvcfJaoYg6TlirhegKJKsdEpFvfoxb4HHS2xJVQRuNjirDLaij47BOuf0tCkK7SCz445hbDQjtgs8KQn1mdC5RmljhUGlM+n1cnaf2b8GfNsZKIEwSyklR7Urrxq6TOD5HaWT/TlrTub6IXaEayC4ADuD1BdQGpKop7YC1yLp0YG9eX7ftdtiX6kTLp+gHFwV/hu1LWQE2ltrVsp9wLM0vjDWeAjkNzERf7KJgHIp9Viah+oDRFhbQnB8ad+kZUBakKjVK4H+FcC+A8BXC6Mg0fYpCfTI924U2qtWsSaGAtP6a/714ZH0UsFGtWonEzgCNqMfCn1mOwB9PbAsgHE/czD4XXzEz1Lzycfb4amoH81kCX5k9WniBC1cpsln8W++3zQGv9wEDCD1ZAgizL9zx1DLnXML0s/jG04xbeC4k0Tl6kT2LmsOqNUjVwtMMQ4tQIICwhZYEW6o404VXf9lNny00xDCUJlAggLAJRK21S5K7muCt5qDdWp8X7msNCgQQtgYf/ChsEruW3FgLTSUMpQoKBBBWQazQNFCgGRQIIGwGVUOfgQJVUCCAsApihaaBAs2gQABhM6ga+gwUqIICAYRVECs0DRRoBgUCCJtB1dBnoEAVFAggrIJYoWmgQDMoEEDYDKqGPgMFqqBAAGEVxApNAwWaQYEAwmZQNfQZKFAFBf4fU4afSd+hWu8AAAAASUVORK5CYII=;" vertex="1" parent="0VyX5d_8uN8t0-djkHP3-208">
          <mxGeometry x="12.43393939393934" y="73.96348837209302" width="85" height="36.27" as="geometry" />
        </mxCell>
        <mxCell id="0VyX5d_8uN8t0-djkHP3-227" value="" style="strokeColor=#666666;shadow=1;strokeWidth=1;rounded=1;absoluteArcSize=1;arcSize=2;fillColor=#f5f5f5;fontColor=#333333;" vertex="1" parent="0VyX5d_8uN8t0-djkHP3-206">
          <mxGeometry x="346" y="210.01000000000002" width="250" height="117.67" as="geometry" />
        </mxCell>
        <mxCell id="0VyX5d_8uN8t0-djkHP3-228" value="&lt;font color=&quot;#000000&quot;&gt;&lt;strong data-renderer-mark=&quot;true&quot;&gt;rapidpro-nudgebots-db&lt;/strong&gt;&lt;/font&gt;&lt;br&gt;Cloud SQL&lt;hr&gt;&lt;strong data-renderer-mark=&quot;true&quot;&gt; PostgreSQL 10.22&lt;br&gt;&lt;/strong&gt;&lt;strong data-renderer-mark=&quot;true&quot;&gt;us-east1-b&lt;/strong&gt;" style="sketch=0;dashed=0;connectable=0;html=1;part=1;labelPosition=right;verticalLabelPosition=middle;align=left;verticalAlign=top;spacingLeft=5;fontColor=#999999;fontSize=12;spacingTop=-8;shape=image;image=data:image/svg+xml,PHN2ZyB4bWxucz0iaHR0cDovL3d3dy53My5vcmcvMjAwMC9zdmciIHhtbG5zOnY9Imh0dHBzOi8vdmVjdGEuaW8vbmFubyIgd2lkdGg9IjE0LjY1OTk5OTg0NzQxMjExIiBoZWlnaHQ9IjIwIiB2aWV3Qm94PSIwIDAgMTQuNjU5OTk5ODQ3NDEyMTEgMjAiPiYjeGE7CTxzdHlsZSB0eXBlPSJ0ZXh0L2NzcyI+JiN4YTsJLnN0MHtmaWxsOiM0Mjg1ZjQ7fSYjeGE7CS5zdDF7ZmlsbDojNjY5ZGY2O30mI3hhOwkuc3Qye2ZpbGw6I2FlY2JmYTt9JiN4YTsJPC9zdHlsZT4mI3hhOwk8c3R5bGU+JiN4YTsJCS5Ee2ZpbGwtcnVsZTpldmVub2RkfSYjeGE7CTwvc3R5bGU+JiN4YTsJPHBhdGggZD0iTTcuMzMgMTUuMzV2LTMuMDFMMCA4LjQ0djMuMDF6bTAgNC42NXYtMy4wMUwwIDEzLjA5djMuMDF6IiBjbGFzcz0ic3QyIEQiLz4mI3hhOwk8cGF0aCBkPSJNMTQuNjYgOC40NGwtNy4zMyAzLjl2My4wMWw3LjMzLTMuOXptMCA0LjY1bC03LjMzIDMuOVYyMGw3LjMzLTMuOXoiIGNsYXNzPSJzdDEgRCIvPiYjeGE7CTxwYXRoIGQ9Ik03LjMzIDB2My4wMWw3LjMzIDMuOVYzLjl6IiBjbGFzcz0ic3QwIEQiLz4mI3hhOwk8cGF0aCBkPSJNMCA2LjkxbDcuMzMtMy45VjBMMCAzLjl6IiBjbGFzcz0iRCBzdDEiLz4mI3hhOwk8cGF0aCBkPSJNNy4zMyAxMC43OVY3Ljc3TDAgMy44N3YzLjAyeiIgY2xhc3M9IkQgc3QyIi8+JiN4YTsJPHBhdGggZD0iTTE0LjY2IDMuODdsLTcuMzMgMy45djMuMDJsNy4zMy0zLjl6IiBjbGFzcz0iRCBzdDEiLz4mI3hhOzwvc3ZnPg==;" vertex="1" parent="0VyX5d_8uN8t0-djkHP3-227">
          <mxGeometry width="42" height="42" relative="1" as="geometry">
            <mxPoint x="5" y="7" as="offset" />
          </mxGeometry>
        </mxCell>
        <mxCell id="0VyX5d_8uN8t0-djkHP3-229" value="" style="shape=mxgraph.gcp2.doubleRect;strokeColor=#666666;shadow=1;strokeWidth=1;rounded=1;absoluteArcSize=1;arcSize=2;fillColor=#f5f5f5;fontColor=#333333;" vertex="1" parent="0VyX5d_8uN8t0-djkHP3-206">
          <mxGeometry x="190" y="60.01" width="240" height="110" as="geometry" />
        </mxCell>
        <mxCell id="0VyX5d_8uN8t0-djkHP3-230" value="&lt;font color=&quot;#000000&quot;&gt;&lt;b&gt;rapidpro-production&lt;/b&gt;&lt;/font&gt;&lt;br&gt;GKE " style="editableCssRules=.*;html=1;fontColor=#999999;shape=image;verticalLabelPosition=middle;labelBackgroundColor=#ffffff;verticalAlign=middle;labelPosition=right;align=left;spacingLeft=20;part=1;points=[];imageAspect=0;image=data:image/svg+xml,PHN2ZyB4bWxucz0iaHR0cDovL3d3dy53My5vcmcvMjAwMC9zdmciIHhtbG5zOnY9Imh0dHBzOi8vdmVjdGEuaW8vbmFubyIgd2lkdGg9IjQwMi4zNDMyMDA2ODM1OTM3NSIgaGVpZ2h0PSI0MTYuMDAyNTMyOTU4OTg0NCIgdmlld0JveD0iMCAwLjAwMDQ5OTk2Mzc2MDM3NTk3NjYgNDAyLjM0MzIwMDY4MzU5Mzc1IDQxNi4wMDI1MzI5NTg5ODQ0Ij4mI3hhOwk8c3R5bGUgdHlwZT0idGV4dC9jc3MiPiYjeGE7CS5zdDB7ZmlsbDojNDI4NWY0O30mI3hhOwkuc3Qxe2ZpbGw6IzY2OWRmNjt9JiN4YTsJLnN0MntmaWxsOiNhZWNiZmE7fSYjeGE7CTwvc3R5bGU+JiN4YTsJPHBhdGggY2xhc3M9InN0MiIgZD0iTTM2Ni4xNyA5Mi4wMDNjLTE5LjA1IDAtMzYgMTYuODItMzYgMzUuNzYgMCAxMi42MiA4LjQ2IDI1LjI0IDE5LjA1IDMxLjU1djE0Ny4zbC0xMTAuMDUgNjUuMjEgMTYuOTMgMjcuMzUgMTE4LjUxLTY5LjQyYzQuMjQtMi4xIDguNDctOC40MSA4LjQ3LTE0Ljczdi0xNTUuNjdjMTIuNzEtNi4zNSAxOS4wOS0xOC45MyAxOS4wOS0zMS41NSAyLjA4LTE4Ljk0LTE0Ljg1LTM1LjgtMzYtMzUuOHptLTM4LjExLTIzLjFMMjA5LjU1IDEuNTgzYy00LjI0LTIuMTEtMTAuNTktMi4xMS0xNi45MyAwTDU3LjE3IDc5LjQxM0EzNiAzNiAwIDAgMCAzNiA3My4xMDNjLTE5IDAtMzYgMTYuODMtMzYgMzUuNzZzMTYuOTMgMzUuNzcgMzYgMzUuNzcgMzYtMTYuODMgMzYtMzUuNzdsMTI5LjEtNzMuNjIgMTEwIDYzLjExem0tMTQzLjg5IDI3Ny42OHEtOS41MyAwLTE5IDYuMzFsLTExMC02My4xMXYtMTI2LjIyaC0zNHYxMzQuNjNjMCA2LjMyIDQuMjMgMTIuNjMgOC40NiAxNC43M2wxMTguNTQgNjUuMjF2Mi4xMWMwIDE4LjkzIDE2LjkzIDM1Ljc2IDM2IDM1Ljc2czM2LTE2LjgzIDM2LTM1Ljc2LTE3LTMzLjY2LTM2LTMzLjY2eiIvPiYjeGE7CTxwYXRoIGNsYXNzPSJzdDEiIGQ9Ik05Ny4zOCAxMzYuMjEzbDEwNS44MiA1OC45MSAxMDMuNy01OC45MS0xMDMuNy02MXptLTYuMzUgNjcuMzJsMTEyLjE3IDYzLjExdi01MC40OWwtMTEyLjE3LTY1LjIxem0wIDYzLjExbDExMi4xNyA2NS4yMXYtNDQuMTdsLTExMi4xNy02NS4yMnoiLz4mI3hhOwk8cGF0aCBjbGFzcz0ic3QwIiBkPSJNMjAzLjE3IDIxNi4xMjN2NTAuNTZsMTEyLjE2LTY1LjI5di01MC4zOXptOTItMjBhOC4xNiA4LjE2IDAgMSAxIDguMTYtOC4xNiA4LjE5IDguMTkgMCAwIDEtOC4xNiA4LjE2em0tOTIgOTEuNTJ2NDQuMTZsMTEyLjE2LTY1LjEydi00NC4xNnptOTItMjIuODhhOC4xNiA4LjE2IDAgMSAxIDguMTYtOC4xNiA4LjE5IDguMTkgMCAwIDEtOC4xNiA4LjE2eiIvPiYjeGE7PC9zdmc+;" vertex="1" parent="0VyX5d_8uN8t0-djkHP3-229">
          <mxGeometry width="29" height="30" relative="1" as="geometry">
            <mxPoint x="15" y="15" as="offset" />
          </mxGeometry>
        </mxCell>
        <mxCell id="0VyX5d_8uN8t0-djkHP3-233" value="" style="shape=mxgraph.gcp2.doubleRect;strokeColor=#666666;shadow=1;strokeWidth=1;rounded=1;absoluteArcSize=1;arcSize=2;fillColor=#f5f5f5;fontColor=#333333;" vertex="1" parent="0VyX5d_8uN8t0-djkHP3-206">
          <mxGeometry x="760" y="150.01" width="226" height="110" as="geometry" />
        </mxCell>
        <mxCell id="0VyX5d_8uN8t0-djkHP3-234" value="&lt;font color=&quot;#000000&quot;&gt;Name&lt;/font&gt;&lt;br&gt;Cloud Load Balancing" style="editableCssRules=.*;html=1;fontColor=#999999;shape=image;verticalLabelPosition=middle;labelBackgroundColor=#ffffff;verticalAlign=middle;labelPosition=right;align=left;spacingLeft=20;part=1;points=[];imageAspect=0;image=data:image/svg+xml,PHN2ZyB4bWxucz0iaHR0cDovL3d3dy53My5vcmcvMjAwMC9zdmciIHhtbG5zOnY9Imh0dHBzOi8vdmVjdGEuaW8vbmFubyIgd2lkdGg9IjIwIiBoZWlnaHQ9IjIwIiB2aWV3Qm94PSIwIDAgMjAgMjAiPiYjeGE7CTxzdHlsZSB0eXBlPSJ0ZXh0L2NzcyI+JiN4YTsJLnN0MHtmaWxsOiM0Mjg1ZjQ7fSYjeGE7CS5zdDF7ZmlsbDojNjY5ZGY2O30mI3hhOwkuc3Qye2ZpbGw6I2FlY2JmYTt9JiN4YTsJPC9zdHlsZT4mI3hhOwk8cGF0aCBjbGFzcz0ic3QxIiBkPSJNMTYgMTBoMnY0aC0yem0tNyAwaDJ2NEg5em0tNyAwaDJ2NEgyeiIvPiYjeGE7CTxwYXRoIGNsYXNzPSJzdDAiIGQ9Ik05IDVoMnY0SDl6Ii8+JiN4YTsJPHBhdGggY2xhc3M9InN0MSIgZD0iTTIgOWgxNnYySDJ6Ii8+JiN4YTsJPHBhdGggY2xhc3M9InN0MiIgZD0iTTQgMGgxMnY1SDR6Ii8+JiN4YTsJPHBhdGggY2xhc3M9InN0MSIgZD0iTTEwIDBoNnY1aC02eiIvPiYjeGE7CTxwYXRoIGNsYXNzPSJzdDIiIGQ9Ik0xNCAxNGg2djZoLTZ6TTAgMTRoNnY2SDB6Ii8+JiN4YTsJPHBhdGggY2xhc3M9InN0MSIgZD0iTTMgMTRoM3Y2SDN6Ii8+JiN4YTsJPHBhdGggY2xhc3M9InN0MiIgZD0iTTcgMTRoNnY2SDd6Ii8+JiN4YTsJPHBhdGggY2xhc3M9InN0MSIgZD0iTTEwIDE0aDN2NmgtM3ptNyAwaDN2NmgtM3oiLz4mI3hhOzwvc3ZnPg==;" vertex="1" parent="0VyX5d_8uN8t0-djkHP3-233">
          <mxGeometry width="30" height="30" relative="1" as="geometry">
            <mxPoint x="15" y="15" as="offset" />
          </mxGeometry>
        </mxCell>
        <mxCell id="0VyX5d_8uN8t0-djkHP3-258" value="" style="shape=mxgraph.gcp2.doubleRect;strokeColor=#666666;shadow=1;strokeWidth=1;rounded=1;absoluteArcSize=1;arcSize=2;fillColor=#f5f5f5;fontColor=#333333;" vertex="1" parent="0VyX5d_8uN8t0-djkHP3-206">
          <mxGeometry x="450" y="60.01" width="280" height="110" as="geometry" />
        </mxCell>
        <mxCell id="0VyX5d_8uN8t0-djkHP3-259" value="&lt;font color=&quot;#000000&quot;&gt;&lt;b&gt;elasticsearch-redis-services&lt;/b&gt;&lt;/font&gt;&lt;br&gt;GKE " style="editableCssRules=.*;html=1;fontColor=#999999;shape=image;verticalLabelPosition=middle;labelBackgroundColor=#ffffff;verticalAlign=middle;labelPosition=right;align=left;spacingLeft=20;part=1;points=[];imageAspect=0;image=data:image/svg+xml,PHN2ZyB4bWxucz0iaHR0cDovL3d3dy53My5vcmcvMjAwMC9zdmciIHhtbG5zOnY9Imh0dHBzOi8vdmVjdGEuaW8vbmFubyIgd2lkdGg9IjQwMi4zNDMyMDA2ODM1OTM3NSIgaGVpZ2h0PSI0MTYuMDAyNTMyOTU4OTg0NCIgdmlld0JveD0iMCAwLjAwMDQ5OTk2Mzc2MDM3NTk3NjYgNDAyLjM0MzIwMDY4MzU5Mzc1IDQxNi4wMDI1MzI5NTg5ODQ0Ij4mI3hhOwk8c3R5bGUgdHlwZT0idGV4dC9jc3MiPiYjeGE7CS5zdDB7ZmlsbDojNDI4NWY0O30mI3hhOwkuc3Qxe2ZpbGw6IzY2OWRmNjt9JiN4YTsJLnN0MntmaWxsOiNhZWNiZmE7fSYjeGE7CTwvc3R5bGU+JiN4YTsJPHBhdGggY2xhc3M9InN0MiIgZD0iTTM2Ni4xNyA5Mi4wMDNjLTE5LjA1IDAtMzYgMTYuODItMzYgMzUuNzYgMCAxMi42MiA4LjQ2IDI1LjI0IDE5LjA1IDMxLjU1djE0Ny4zbC0xMTAuMDUgNjUuMjEgMTYuOTMgMjcuMzUgMTE4LjUxLTY5LjQyYzQuMjQtMi4xIDguNDctOC40MSA4LjQ3LTE0Ljczdi0xNTUuNjdjMTIuNzEtNi4zNSAxOS4wOS0xOC45MyAxOS4wOS0zMS41NSAyLjA4LTE4Ljk0LTE0Ljg1LTM1LjgtMzYtMzUuOHptLTM4LjExLTIzLjFMMjA5LjU1IDEuNTgzYy00LjI0LTIuMTEtMTAuNTktMi4xMS0xNi45MyAwTDU3LjE3IDc5LjQxM0EzNiAzNiAwIDAgMCAzNiA3My4xMDNjLTE5IDAtMzYgMTYuODMtMzYgMzUuNzZzMTYuOTMgMzUuNzcgMzYgMzUuNzcgMzYtMTYuODMgMzYtMzUuNzdsMTI5LjEtNzMuNjIgMTEwIDYzLjExem0tMTQzLjg5IDI3Ny42OHEtOS41MyAwLTE5IDYuMzFsLTExMC02My4xMXYtMTI2LjIyaC0zNHYxMzQuNjNjMCA2LjMyIDQuMjMgMTIuNjMgOC40NiAxNC43M2wxMTguNTQgNjUuMjF2Mi4xMWMwIDE4LjkzIDE2LjkzIDM1Ljc2IDM2IDM1Ljc2czM2LTE2LjgzIDM2LTM1Ljc2LTE3LTMzLjY2LTM2LTMzLjY2eiIvPiYjeGE7CTxwYXRoIGNsYXNzPSJzdDEiIGQ9Ik05Ny4zOCAxMzYuMjEzbDEwNS44MiA1OC45MSAxMDMuNy01OC45MS0xMDMuNy02MXptLTYuMzUgNjcuMzJsMTEyLjE3IDYzLjExdi01MC40OWwtMTEyLjE3LTY1LjIxem0wIDYzLjExbDExMi4xNyA2NS4yMXYtNDQuMTdsLTExMi4xNy02NS4yMnoiLz4mI3hhOwk8cGF0aCBjbGFzcz0ic3QwIiBkPSJNMjAzLjE3IDIxNi4xMjN2NTAuNTZsMTEyLjE2LTY1LjI5di01MC4zOXptOTItMjBhOC4xNiA4LjE2IDAgMSAxIDguMTYtOC4xNiA4LjE5IDguMTkgMCAwIDEtOC4xNiA4LjE2em0tOTIgOTEuNTJ2NDQuMTZsMTEyLjE2LTY1LjEydi00NC4xNnptOTItMjIuODhhOC4xNiA4LjE2IDAgMSAxIDguMTYtOC4xNiA4LjE5IDguMTkgMCAwIDEtOC4xNiA4LjE2eiIvPiYjeGE7PC9zdmc+;" vertex="1" parent="0VyX5d_8uN8t0-djkHP3-258">
          <mxGeometry width="29" height="30" relative="1" as="geometry">
            <mxPoint x="15" y="15" as="offset" />
          </mxGeometry>
        </mxCell>
        <mxCell id="0VyX5d_8uN8t0-djkHP3-222" value="" style="outlineConnect=0;dashed=0;verticalLabelPosition=bottom;verticalAlign=top;align=center;html=1;shape=mxgraph.aws3.s3;fillColor=#E05243;gradientColor=none;" vertex="1" parent="0VyX5d_8uN8t0-djkHP3-226">
          <mxGeometry x="1334.4692307692308" y="302.0046428571428" width="99.0576923076923" height="122.89285714285714" as="geometry" />
        </mxCell>
        <mxCell id="0VyX5d_8uN8t0-djkHP3-178" value="" style="shape=image;imageAspect=0;aspect=fixed;verticalLabelPosition=bottom;verticalAlign=top;image=data:image/jpeg,/9j/4AAQSkZJRgABAQAAAQABAAD/2wCEAAoHCBIRERgUFBISFhgaGB0YHRUcGhkVHBoZGBkZHBoeGRkcIy4rHB4tIRwZJzgnLC8xNTVDGiQ/QDszPy40NTEBDAwMEA8QHxISHj0rJSw6NDQxNj80NDQ0NDQ0NT09NDQ0NDQ0ND00NDQ0NDQ0NDQ2NDQ0NDQ0PTQ0NDQ0NDQ9NP/AABEIAKMBNgMBIgACEQEDEQH/xAAcAAEAAgMBAQEAAAAAAAAAAAAABgcDBAUCAQj/xABAEAACAQMCAwYDBAYJBQEAAAABAgADBBESIQUGMQciQVFhcROBkTJyobIUMzRCYrM1UnN0gpKxw9EjJEPC4Rf/xAAYAQEBAQEBAAAAAAAAAAAAAAAAAgEDBP/EACIRAQEAAgIDAQACAwAAAAAAAAABAhEDEiExQTITIgRRYf/aAAwDAQACEQMRAD8AuaIiAiIgIiICIiAiIgIiICIiAiIgIiICIiAiIgIiICIiAiIgIiICIiAiIgIiICIiAiIgIiICIiAiIgIiICIiAiIgIiICIiAiIgIiICIiAiIgIiICIiAiIgIiICIiAiIgIiICIiAiIgIiICIiAiIgIiICIiAiIgIiICIiAiIgIiICIiAiIgIiICIiAiIgIiICIiAiIgIiIHyImonEKLVDTFRC46oGBIx6RJWWye25MVappE9M4HUgT44BG+MTSvFCoWzmZpjpqoHdxPWoHxEE/wCvUTVuL+jTYK9WmrN0DMAT7AzazM1TcIicduZ7AHBvLcEbY1r1jTduzEx03DKCpBBAIIOQQdwQfETJARE519xq1t20VrilTYjOlmVTjzwfCB0YmnYcRo3ClqNWnUUHSSrBgDgHBx44I+s3ICIiAiIgIiICIiB8icbjfMdtYlFruylwSuFZshcA/ZG3UTNwTjNC9pl6LFlVtJJUruAD0PoRN1dbZub06kRExpERAREQEREBERAREQEREDwekrzhnK10l0hYAKjhjV1A6gpzsM5yfUeMsM9NpW/C+P3j3iqzM2pwrUsbBScMNP7ukZOfTeer/H79cuuvXnby/wCR07Y9t+/CwK9M5yN57en3QPKQnnDjNzSuQiOaahQwxjvE9SSRuM7Y9JKuG3VR7Wm7jDMoLbY+ePDPX5znlx5Y4zK/V48kyyuP+m5QpkA52zMdKkc7+E8vVYUnZRqIUkDzIBIH1xINy5x67qXaKzs6sSGUgYAwTkYHdxGHHllLZ8M+SY2S/WfmXly6q3TVEQOr4wdQGnCgYbJ6beEmthRNOkiM2oqgUnzKgAmQbmfjt1Su2VajIqadKgDDAgHUcjfJJHltJzY1GekjOulmUMV8mIBI+svm7/x49ta+I4en8mWt7+tqfnK5/WP99vzGfo2fnlKQe6CNnD1ghx1wz4OPrOfF9deX4srsw418WgbVz3qW6+tMnp/hO3sVk8lDW9WrwviGSDqpOVYdNaHrj0ZTke48peVrcLVpq6MGVlDKw8VYZBk8mOrufVYXc1Xm+uko02qucKilifQDO0oLi3EGurh67/ads466V6Ko9gAPlJ92pcbwFs1PXD1MeQ+wp9yM/JfOQW44Y1O1pV2yPiu4UfwoFGr5sT/l9ZfHjqbv1HJd3SxeyX9lrf23+2knsgXZL+y1v7b/AG0mbnDnYWjGhQVXqgd5m3VM7gED7TY3xtjI9pGUtysi8cpMZam8SmafHuN1h8VGuWXrqWiCvywmD+M7XK/P9Rqi0bzSQx0isBpIYnADqNsZ8QBjxHkvHYd4spzgZPhKs5X5qu7niSI1djSdnPw9KAadDsoyFztgePhOnz9xy/oVDSooRRallqgps+M6w4L/AGVwAPbMrvhVzWo1ke31fEXOnC6zupBwuDnYnwlYYeKjLLzH6GiV9yXxviVe60XIqfD+Gzd6j8MagVx3tI8Cdpz+ZO0G4FR6VunwgjFC7qGcspwcKdl38CD8pHS70vvNbWjmJSNTmTi1PDvWuUBOxemFU+2pMGTrkfm83pNGsFWqq6gy7K6jAJx4EZG3/wBm3CybJnLdOJ2ufrLb7r/mpzrdk/7HU/t2/JTnJ7XP1lt91/zU5w+X+aK1patb29PVVeoX1414BRRhVH2m7p67DyMvVuEkc9yZ21dcSkm5u4rRfv1qgbroemigj1UoMD2xLL5R5jW/oliAtRCA6Dcb9GX+E7+2CPU88sLJt0xzlukiiV7zhz1VtqzW9CmFZMBqjjPUAjSvlgjc/SROpzJxfT8Q1rkL11/DCr9QmnE2cds2Xkkul3RK85K53evVW3udJZtkqgBdTAZ0sBtk+BGPLEkfNvMScPoB9Op3OlEzgEgZJJ/qjb6geMm42XTZlLNpBEpheZ+L3TMaT1mA6rSpBlX6KT9SZ1OXecuIC6W3r02ql2C6WQUqi56nYAYAyTkeHWVeOxkzi04nK5g41SsaBq1MnwVR9pmPQD/XPhKyr85cUu6hWhqTxFOlT1kDzZipPz2EyY2tyykXFEp6hzjxSzqAXAZx1NOqmgkeasFB+e4locE4rTvKC1qZOD1B6qw6qfUf8Hxi42GOUrpRESVPBOJDbHm2i90FFAKHYIK2RqOThSw09CceO0mUiFlwjhy3ncrZdW1LR1AqrDfbbfHlnbE78XTWXaX1404c3fePWz2kt0qMQHRGxuNQBx7ZE1OOcYW1oioVLajpVemTgnc+AwDOhVpqTknBmnxfhVK5pfDqZABBBBwQR4jPufrIxuO529fV5S6vX21uXePLeKxCaGXGVzqGDnBBwPI+HhN+gEDEqiKzdWAAJ9yBvNXgfBqVorBCzFjuxxk46DYdBk/Wb9NEDbHJ8ozuPa9fTMJl1nb2jHHOZqNG40G3WqUxljgFSQD3MqcnceIkptq61EV13VlDA+hGRIvx/hNhUuA1av8ADdsZUMo1eAJyDjpjO3SSijTVFVVACqAAPIAYAlcnTrj1l39Rxd+2W7NfGafny0/bE/vC/wAwT9Bz8+Wn7Yn94X+YJnF9XyfE+7UuCakW8QbphKnqpPcb5E4/xDymDs+5nWla1aVZtqKNVTzKZ7yj1DEY+/6Sxbu2SrTam6gq6lWHmCMGUHxrhrWlw9BicqcA9NSHdW+Ywff2jH+061mX9buNqyt6vFL/AAx71VyzsP3EH2segXYfKS3tUoLTp2iIoCrrVQPAKtMATpdmPBfhW5uXHfq/Z8xTB2/zHf2CzR7Xvs23vU/0SN7ykhrWNtZ+yypps7g/1apP0poZWv6QKlb4lbUwd9b46sGbU4B8CRmWX2UoGs66noapB9jTQSuPhm1udNVA3wqgDIwBDBW3BB2IIH4y5+qzL8xYtPtMtVAC21YAAAAaAABsABnYSB8zcQpXVy9akjIrgEq2M68YY9043wD75lwWPCOG16a1KdrZurDIYUqZ/wDXY+k1rq34PSqLSejYK7EAIaVPOT0zhe7n1xImUl8RVxtnmvF7cNV4GztuzWeonzJpAk/WVxyD/Sdv7v8Ay6ktbmmmF4dcqoAAoOAoGAAEOAAOglUchsBxK3yQO84+ZpuB+M3H81mX6i8pxr22sKFT9JqrbpUP/lbSpJAxsT+97bzb4rfChQq1RhjTps+n1VSwB8syleH0qvFL5Vq1TrqE5c76VVSxCL4DAwANpGOO/K8steFhcwc28NrW1Wj8YOXRlACORqwdOG04+1g5kB5FqFeJW+D1ZgfY03Bk24hyPw+2talRtbMqMQ7uR3tJ07LpHXG2JB+Sf6Rtvvn8jy8ddbpzu+02k3a5+stvuv8AmpzodlFqn6PUq6RrNQpq8dARCFB8Bkkzn9rn6y2+6/5qc6fZPVX9FqrqGoVixXO4UogBx5ZB+kX8Nn7bnaZZI9g1QgaqbIVPjh3VGGfLvZ+QkP7LrgrflM7PSYEeqlWB/A/WSvtP4iiWfwNQ11WXC+OlGDE48sqB85GeyuzZ7x6uO7TpkZ/icgD8FeMfxdmX7mlj8SsLMuLivToZUDFRwoxjcd5ttt8Tm3fOfDACrXCsCCpCo9RSDsRkKQRKs4hxKtxO7Qs5Ad1RFJ7tNXYKu3sRk9TLEtuzywpJmq1R8DJZn0KMdThcYHuTJuMx91Xa31FYcPfRdU2QkYrIVPoHGJPu1mzdkoVgCUQujH+qX0lSfIHSRn285X9qB+kpp+z8VceO2sY/CX5fVqKpis1NVbu98qFbPh3tjnylZ3VlTjNyxU/JvOQsEak9IujOX1KQGBIAOx2YbDxHzlj8G5gs705pVFLgfZYaXA8cA9R7ZE5HFOz6yrAmlroMdxpOpc/cPh6KRKvpipa3YCtl6dbSGXoWR9O3oemPIxqZeZ7N3HxUo7Vbtnu0pZ7qUwwH8Tscn6Ks8co83W1hblDQqs7MWd10YPgo3OcAY+ZMz9qtky3NOtjuvT0Z8mQk4+jD6GdDs7pWFzbfCq29s1ZGOdVOmWdCcq2SMsBnT6aR6R46RnntXI5v5ut+IW4RaFVWVwys2jA6hhsc7g/gJ1eyO4b/ALin+6NDgeRbWD9Qq/SSu94Twyghera2SKP3jSpgfl3PpNrgi2hp/EtEoqj/AL1NVQMVyNwANxv1k3KddSLmN7btdWIic3R4YZBEr/h3KNwl0pYroRw+sHdgpyML1BOPH16ywonTDlywlk+uXJxY52W/GtWoknInp6RKgeImeYrhiF2kS3xF2T280KRAOfGeKVEg5PhPdsxIOZni2y0kliBcxcsXNa6apTwyuQclsacKBgjy28MyaWFD4dJEJ1FVVc+ekAZmzEvPlyzkxvqIw4sccrZ9JUNvyRxBblKhpJpFVXJ1p9kVA3TPlLfnyRjlcfS8sZfZNC+4PbXDBq1ClUYDAZkViB5ZI6ek6ETFMaKAAAAANgBsABId2h8Bub0URQVW0F9WWC41BMdevQyaz5Nl1dss3NIl2fcFr2VColdQrNU1ABg+2hB1HqDMfN3JiXrfGpMErYwSfsuB01Y3BHTUM+x2xMYjtd7Z1mtKWHJvFaTEJTcZ6slVFB9+8D9ROjwjs3uHcNcstJc5KqQ7t57jur75PtLYiVeSs/jjVqWaNRNFgShQoQSSSpGk5J3Jx4ypOJcgX1JyKSisme66sqnHhqViMN7ZEuWJkys9NyxlV3yZyneUGqG4KLSqoUelq1s+QQCSNgRk75PUzg33IfELerm3HxFBytRXWm48iQSMN7S4om97vbOk1pV9lyZxC7ZTf16gpqc6DU+Ix9hkqvvufSfOBclXdtxCnUKIaSVGOsOuSmGCnT1zuNpaUR3p0iCdoXLtzevRNBFYKrhssq4LFcdevQyP/wD59eJQSpTcLXGdVMPpwM93Q42zjqCcestqJkzsmi4S3amaHIvEqz/9RAuetR6iv+UsWln8u8Dp2NAUkyTnUzHq7EDJPkNsAeGJ14jLK323HGRUnH+QLpazPaqtSmWLBQwRkyc4w2AQPAgzNa8p8WusJdV6iUtsh6hqEgeSKxBP3jLVib/JdM6RU1zyBdU7sGgoairoykuobSCpIYHG436SUc8crVeIaGp1QCgIFJtkJJ3YMBkN0G4I28N8zGJne7lb0mtKdTlvjdNfhL8cJ0wtdQuPQaxgfKdvlPkGpSqrXuiuUIZaSnV3huC7dNjvgZ6Dfwljz7NudrJhI5vG+EUryg1GqDg7gjZlYdGU+B/5lXcQ7Pb6k+aOisoOVZWCMPdWIwfYmXHEzHK4+m5Yy+1M0uR+J12HxF0/xVKgfA9NJYyxuVOXl4fRKB2dmOp2Oy6sY7q+A/E/THfiMs7WY4SPsRElZERAREQEREBERAREQEREBERAREQEREBERAREQEREBERAREQEREBERAREQEREBERAREQEREBERAREQEREBERAREQEREBERAREQEREBERAREQEREBERAREQEREBERAREQEREBERAREQEREBERAREQEREBERAREQEREBERAREQEREBERAREQEREBERAREQEREBERAREQEREBERAREQEREBERAREQEREBERAREQEREBERAREQEREBERAREQEREBERAREQEREBERAREQP/9k=;" vertex="1" parent="0VyX5d_8uN8t0-djkHP3-226">
          <mxGeometry x="26.43" y="994" width="95.1" height="50" as="geometry" />
        </mxCell>
        <mxCell id="0VyX5d_8uN8t0-djkHP3-267" value="Armazenamento de &lt;br&gt;&lt;div&gt;mídia e upload&lt;/div&gt;&lt;div&gt;&lt;br&gt;&lt;/div&gt;" style="text;html=1;align=center;verticalAlign=middle;resizable=0;points=[];autosize=1;strokeColor=none;fillColor=none;fontStyle=1;fontColor=#000000;" vertex="1" parent="0VyX5d_8uN8t0-djkHP3-226">
          <mxGeometry x="1345" y="242" width="150" height="60" as="geometry" />
        </mxCell>
        <mxCell id="0VyX5d_8uN8t0-djkHP3-270" value="" style="group" vertex="1" connectable="0" parent="0VyX5d_8uN8t0-djkHP3-226">
          <mxGeometry x="1210" y="610" width="210" height="130" as="geometry" />
        </mxCell>
        <mxCell id="0VyX5d_8uN8t0-djkHP3-268" value="" style="image;aspect=fixed;perimeter=ellipsePerimeter;html=1;align=center;shadow=0;dashed=0;spacingTop=3;image=img/lib/active_directory/internet_cloud.svg;" vertex="1" parent="0VyX5d_8uN8t0-djkHP3-270">
          <mxGeometry width="188.41726618705036" height="118.70503597122301" as="geometry" />
        </mxCell>
        <mxCell id="0VyX5d_8uN8t0-djkHP3-269" value="&lt;b&gt;&lt;font color=&quot;#000000&quot;&gt;app.nudgebots.com&lt;/font&gt;&lt;/b&gt;" style="text;html=1;align=center;verticalAlign=middle;resizable=0;points=[];autosize=1;strokeColor=none;fillColor=none;" vertex="1" parent="0VyX5d_8uN8t0-djkHP3-270">
          <mxGeometry x="14.793814432989642" y="47.27272727272727" width="150" height="30" as="geometry" />
        </mxCell>
        <mxCell id="0VyX5d_8uN8t0-djkHP3-285" style="edgeStyle=orthogonalEdgeStyle;rounded=0;orthogonalLoop=1;jettySize=auto;html=1;exitX=0.75;exitY=1;exitDx=0;exitDy=0;" edge="1" parent="0VyX5d_8uN8t0-djkHP3-226" source="0VyX5d_8uN8t0-djkHP3-192" target="0VyX5d_8uN8t0-djkHP3-283">
          <mxGeometry relative="1" as="geometry" />
        </mxCell>
        <mxCell id="0VyX5d_8uN8t0-djkHP3-192" value="&lt;b&gt;Google &lt;/b&gt;Cloud Platform - Coltrane/Nudgebots" style="shadow=0;fontSize=14;align=left;spacing=10;9E9E9E;verticalAlign=top;spacingTop=-4;fontStyle=0;spacingLeft=40;html=1;whiteSpace=wrap;" vertex="1" parent="0VyX5d_8uN8t0-djkHP3-226">
          <mxGeometry y="390" width="1000" height="365.1" as="geometry" />
        </mxCell>
        <mxCell id="0VyX5d_8uN8t0-djkHP3-193" value="" style="shape=mxgraph.gcp2.google_cloud_platform;fillColor=#F6F6F6;strokeColor=none;shadow=0;gradientColor=none;" vertex="1" parent="0VyX5d_8uN8t0-djkHP3-192">
          <mxGeometry width="23" height="20" relative="1" as="geometry">
            <mxPoint x="20" y="10" as="offset" />
          </mxGeometry>
        </mxCell>
        <mxCell id="0VyX5d_8uN8t0-djkHP3-194" value="Application" style="strokeColor=#666666;shadow=1;strokeWidth=1;rounded=1;absoluteArcSize=1;arcSize=2;labelPosition=center;verticalLabelPosition=middle;align=center;verticalAlign=bottom;spacingLeft=0;fontColor=#333333;fontSize=12;whiteSpace=wrap;spacingBottom=2;html=1;fillColor=#f5f5f5;" vertex="1" parent="0VyX5d_8uN8t0-djkHP3-192">
          <mxGeometry x="30.3" y="84.91" width="149.7" height="165.09" as="geometry" />
        </mxCell>
        <mxCell id="0VyX5d_8uN8t0-djkHP3-195" value="" style="sketch=0;dashed=0;connectable=0;html=1;fillColor=#757575;strokeColor=none;shape=mxgraph.gcp2.application;part=1;" vertex="1" parent="0VyX5d_8uN8t0-djkHP3-194">
          <mxGeometry x="0.5" width="50" height="40" relative="1" as="geometry">
            <mxPoint x="-25" y="15" as="offset" />
          </mxGeometry>
        </mxCell>
        <mxCell id="0VyX5d_8uN8t0-djkHP3-202" value="" style="shape=image;imageAspect=0;aspect=fixed;verticalLabelPosition=bottom;verticalAlign=top;image=data:image/png,iVBORw0KGgoAAAANSUhEUgAAAOEAAADhCAMAAAAJbSJIAAAA21BMVEX///9BuIM1SV4gOVIjPFTS1tva8OYvtHrY2t41SF4vRFopQFcwRVvKztM5tn9AuoNBU2bU7uIzRFyGkJr29/j4/PpIu4jk9O0zQVvr7e/x+fXr9/F0gI0zPlrd4ONca3uSm6VOX3G3vcNStItTrYmepq8XNE7J6dpcwZPu7/GO0rK24c2c17upsLh/iZWNlqF2yaOk2sBXl4VyyKBFbXBNinzA5dRNoYJTvo6Fz6xmc4FSYnPBxsshMlEAKUY9n3sUsHJOeHdXoIdNdHVJgHdJaHE/WGdMjn1DUmiD1hFeAAANTUlEQVR4nO2da3ubRhOGZcCJYbGNLexYtowOiUjVRlKTNo0ru3l7iNv8/1/0ahcdGEDMg0AcdPn5ZCO0YrTLzD0zgFqtqK6Ibhe6k3qz1KuFLi4uvGNWsZHTxA/nXWz0aqvugM+6+PPs7Ow1py9/6Iy+PmUw8PQrN9wf/2OPaaE/3yCf9vPZEa/zvy41ThksdGxmrMu/zoGjOvsR+rQ7yMK3pskclOjDBo4MZizTfItYeHSFfd7H14iJn2+4ORQeaGDH4oa6+YwY+Pon8AOvHpCv6/o7O4lz8AO7gptC5xo4orMfwM9rtX6DJvHve+6b1zFnc6pzA93/DU3hBWxh6xfoVHwuyNnwbuYZcjO/4wa23kCT+O6yEGfDu5nLd5CFtxksbP0ITeI3dhIN3tl0uJNQu/wGrdGPWQxs3QJDHh29ZS20eGfT5RypefkAWHj2AEaKlX6C1uknNmLoQ+aDnlg3c/MfNIXvsxnYav2ArNPrf7kz0Xbc9M8ZcG7G/BeKFL9kNbB1AU3iFzZiMM6GdTPa/RdoCiEgpfodcjb/sKein+Zsxj739stfCwRSqtuC8NTqpXwI4GYgID3P6GYCYXj6jXU2xnZn88SuUTBSoEBKdfWAzOLDd+4gU5wN72YuEUbOAKRU7wvCUzHb8gGAm/kEnYUZgJQKyoWveTzVk51NhzUQjBRZgJTqDsPTmx2dzZxPC7FIkQlIqTA85QsaiWTDJ02X/0BrNBuQUl0hi2QRMbhD1bS4s3HZpAmMFA85DERz4f/4iBF3NrybucEixW+5LATx1GFnMZZG8UmTZu4JSKleFYSn1mNk4DlrIVa6ONsBSKmKwtOIszllgdR8Bj54NyClwvCUL2hEnA3rZrQbqHSxG5BSFYWnhGx4N4MVuXcE0oggZ8PjqWacrIf02JMQixQ7AynVe2idfuKdzYZs2KQJLHLvDqRUWKvmmT2z1s6GpxmwyL07kFKBeMpOoiaWzobdES1yI91CSB8gE3k8FW01HOBmoNJFxgppmgrDU+Vs+E4TWOS+LsxAFE/5fptyNmynCY0UOYGUCmrVAHi6cDaAm7mBitx5gZTqFeRO+YKGZo8BmoGK3GevCrUQzIX5gobNGwiWLvIDKdVVQQUNjXdHYJG7ACClwlo1fL+NFRgpCgFSqqLwlFGpQEqFtWr4fhs3hVjpoiAgpYJy4esBUJZKnUKoyF0UkFJhufCXfJMIFrkLA1IqLBcGLgdLmUIsUnzYj4GtVmHV063CitxFAikV1qrh8XSrwEiRuWWPC8qFH3g83SLzBooUxQIp1Zui8DRZWJG7aCClKgpPk/W9EiCNCKphAniaOIVYkbtwIKXaI55iRe59ACkVgqe7RQwoUuwFSKmwXHgHPMXaofsBUioMTzNHDDBS7AdIqW4hZ8P32yICi9x7AlIqDE9/zeZswCL33oCUCsNToN8WnkIoUhyVYyCIp3y/LaTLZ+RrK7ZCmiYMT9m7FcJTiBS59wqkVBie8v22zRRi9/zsFUipPhTUb1sKvJJ7z0BKhLVq3qFnIljkznFxV3ZhrRqwoIGVLvYPpFRIq+b8LTiFEJDmu7gruzA8hQoaYOmiBCClgnJhCE+xSPFz2QZid9UgBQ2syJ3/4q7swnJhFk9NEypylwSkVMiF7vzlYFikKAtIqbBWDYOnYKQoDUipoFyY6bdhkaI8IKW6g3Lh1IIGeM9PiUBK9TH3/W33UOmiTCCNCMLTlIIGWOQuFUipsFx4K55ipYuygZQKw9NtyxQqXZQOpFRYLrwFT02sdFE6kFJBeLql34ZFivKBlArLhRPxFLznpwIgpcLwNKHfBha5KwFSKqhVk9Bvw4rc6PNY9insrpoYni6AFLCwKiClQvD0/K2zU6TYfy8N0R1/pHE8xSJFdUBKBbVqIgWNe6h0USGQUiFZOsVTrMh9VCGQUmF4Grq/DbvEssC7DXIrK55ipYv9XdyVXdgzidYRAyxd7PHiruyCWjVrPG0GkFJlwlMTe7BV5UBKBeKp6rdhpYsaACkVhqdyErEi93UNgJQKw1NV0EDaofUAUiokF5b9NihS1ARIqbDq6ed7LFLUBEipIGdz/R2KFLUBUirM2QBfw9FRKRd3ZRfWqgH2qROQUkFXEgGqE5BSQc/n5VV1hTRNUC7MqWZASoU9n5ezsGZASgVdScQYWDsgpYJu+k5V/YCUCsqF01RtLw0R1KrZrloCKdVVzimsJZBSQXi6dQprCqRU0E3f21RTIKWC8DRZ9QVSqt3xtNqWPS7opu/EKaxVhTRNO+JpZRd37SDo+bxxC2sNpFRQqyZmYM2BlGoXPK07kFLtgKf1B1IqqFUTVgOAlApq1ZApbACQUmXE01Jufy1YGfG0EUBKBd1Vs57ChgApFXSh+1JNAVKqW/xMbA6QUsHOpklASoU6myYBKRWIp80CUiosF24WkFJBrZqmASkVgKeNA1IqAE+bB6RUbKumiUBKxebCDQRSKgZPmwmkVOmtmmYCKdVVmoVNBVKqFDxtLpBSbcfTXX7Tr47a2qppMpBSbcuFmwykVFvwtNlASpX48xENB9KIkvC06UBKlZALNx9IqeJ4et54IKWK4WlTWva4onh6CEBKdUUvDj4MIKUieHooQEoVxtNDAVKqi42FhwOkVBs8va7N7a/Fao2nhwSkVMsriQ4LSKmuDxBIqRSe1vpug9ySrZpynlhdld6cHUSFNE0fXj8cTOkiWVd1vP21WNX4rq0XvehFL3rRi14UUac9n7oJm6fzUcLmBsp1hGV049t7hmX04psbKPW7zOY4urnjLzb7J7mGfhqY3U6uEQpRxzA1zXiKbp7IX9y2YoZn0dC3TaHVYKUP7IUp0+jWntw6zzXwo3zOkj7MNUYhGsnZciJftSvXrjHJM66rftQ63xjFyJNnnB45456MxUbh5Rp4Jsfw841RjOTDOkWfbutammY/5hvX7fq+VYNFuviuRcwaN8nq7PKOc7mqwnQszzmfuPVjI2HlNldqwqhH6EvvY1d1QMVrKpcp4Rfp6EW7quMpXspxGqF40ZHrVj+t7oiK1lg+xzKMNRNpsoW+2/NAbnE7XqcixJkvYoOY0v8tReOn80GbHNQx3XA6dXzd1wezJK+02He6dqZef6DLXZ3pUwVWqjnbYE0ANDKSdQzL1sOJR0eI0IaTni7UQz5tYXTj8G4Je52etBdvXO6qOzEK3rtUImEcr/5V56Ulw8epMj20p8xETG35z0S3No8TFiI6jSdyXz34e26Enq1s+8etsiXpexPgJdAE1J1ooba0cOIHcyIMZahtREw8WbzZNNSfbWWgJYRQu1YAqyOCNZq5Oog0C9VrmjGYTSZTWx647dCFurHQC3ad90f9rmbYVcBqQN9LrJFAYwbUnWahnHfTD2ZjrFahmJFBNxYqgNCCKXaHTiWwKg93tXbk8dgD9WeKhUMVM9c+oyvkSUe85MZCmWwaFYfXfghrHjcnZYqFPZo4u/Lh0AaZnI2FjvylnYqT/YC+1UF4YkPdKRYq9xvyLTJDsUhFa2OhPLGrLmcE9K3WnAqOIti83UJ15moh1yJ3pTkYXaWVY+50PQUKcJaHs91CNenhlXcc3TVk4Uh9ac6w0mxRRnkVyl0Rom7GQm3anq4kz95tc9gJcMYw5pPqihpja4k1T/LQ7eXkcBZaG0kj6EoMRfyhH4CPJYxeZaUptThn4eXa4i2MiFaQQxa2TldYatqGU1HtYLj0FIYW8vrsHIqQjAiMhS1suaOBvmJvv3zylhor9++dqEW6Ktrw5+FGs+g5RiyUb5kNglTENKqp9atAPxmRikYGXxpX1MKWTBIVpYtYib0USZdudwfyANarTYWAcKwerkz2ZGrkpLr/BAsXq3WuTKwk/HtqfSqvvl5unjApubTFMrFyfbJjkhItXLJFNc5msPqF+NCylLwVos+xigkj9Uo8mYgo2UKVfVaE4bOgIkFq3Wrbpkg1l/8G2Z1kddMIJ+vRglQo4k9Cc1ahhcfLSkO41t3RJTQvW2RuV5U3gmDZUXv762zC6/lBFDh1vlrqj7WFY93w+yvzOxq7vPcmN/g9tXUZRqkvDTH1+dA77jtqklcdqX6QuD9OTjod73QqnaTkdc9frGRfztHaQsnyYjDxxu64M1Q9Nyf24eVoGlhA0MvtqY2WoS/Lav7a0Qav2EK3TBG8+HW8HEQ5I2KhLMdpjiMM1TatitxUjS2Utyu5AxHiMlPvb155XBfQgp9GMqRdKhqoiLq20NUE2U9UdgWEq1akGW0HdzdFQ2GSLH4mQtZbele+U2VKhlwHIU/T0+31frY+ry4Z7vtC+KPY5qeebwjLWizFdgS3vLati8VLi5xBnwf+0R3oluHI/cLRYtjTDbnjYnyn0r73U3uW6Me9Sbvb7SeV491T+dJ0NFzb7k6mwaVGNB52hqNpt9ueHExTsrU14h+QVJoiqj6KfUqlHwfUSI5L5dSDqo9in5LkWlEmWJIe7XpcErUvdWabPOQQNTWMNZ8epILmabivfGhqL/OQOAEeilSWYtpFd0L/DwWVPdYYZiIIAAAAAElFTkSuQmCC;" vertex="1" parent="0VyX5d_8uN8t0-djkHP3-194">
          <mxGeometry x="91.23491397299559" y="80.27714153399324" width="47.37735641756863" height="47.37735641756863" as="geometry" />
        </mxCell>
        <mxCell id="0VyX5d_8uN8t0-djkHP3-203" value="" style="shape=image;imageAspect=0;aspect=fixed;verticalLabelPosition=bottom;verticalAlign=top;image=data:image/png,iVBORw0KGgoAAAANSUhEUgAAARwAAACxCAMAAAAh3/JWAAAA0lBMVEX///8JLR8JLh0AFgAAEwDV3NkGLx2qt7MILh8AGwCXpp8AHQOPnZb9//8AGgD//f7g6uUACAAAGAAAKxvt8/IAEQAAHgChq6cmPjUADwDb490AJhYAAAAAHgoALR28w78AIw4dOy4AJxk4TkQAKBX3//sAHQtXaGClsqwAIxXI08+DkYpJXFNrfHQZNSno8u97i4TAxsRic23K2dIaPi9KXlV7j4aZrqdxg32co6C7zcUuRzxFVU04SEJpdXEQMCaMkY81U0dRaF8jNy6svbVziX3+BEuQAAAROElEQVR4nO1dCXvaOBP2BSjgCxuHGMdgDOYMmMKXlkJ22W3Z//+XPkm+ZDBOMLBpF71Pn4Qa63o9Gs2MxgrDUFBQUFBQUFBQUFBQUFBQUFBQUFBQUFBQUFBQUFBQUFBQUFwbEsMokvTZvfg3AUerfHDIioLuV0v3gpbqRaN+nxuG8ZvDuc0L9wFee5gPmz7zIXIYdc1rls5xXPkuAAeq93l+rb7HC5x7zMgesIC9MwDdHlew8skjR1rX9c/u6edAry8kJo8chZnx5c/u5WehbKzzFY9otu9uSkUA7Xo1T25Wxv1yg9gxVidkR5EUqWd9dgc/F9YroiGTHGZS/+zefTbMCZNJDtTUyzsXHJYdz04sWFKDbX925z4b+ryRRQ60f1bGHWvjAEBYZVmC8NKep+Tw+xPkVB8oOfLoBDli7e7JYR+qVyAHsCBB6Kjin8EFFvyePINrkAPAmI8h8MEqBwa8hi/An5pzswHcEnnkfLyS8ayTYBTYR3a1sq/sESqV/ey3tJmuQ45M+miqjS8+N4hrTflWA7glrkMOriQEoz7gi3U1ugbdt/slh0OVEJJT49BVSg5GmT1FTlDXXZPDUXJOg5KTAzqtckAlJweUnBzQaZWDk5IT4Z7JOSU5kuSFkJofN7d/IdxOctr/63bhvwBz93ZDuB1uRw7r6jHc35KbG06r/wAKkhME+FiAaIAf5AxyuDL8xUEAAH8cl4eFOeizBt+kooVR5fgCB7/jWPbdaGIUc+TwBw4HIrmgIhaky6KvcbcA7uPVyUEol/uO49RqNbvPZ5HDJZHTMtk53Hldh4Vrj481x+nr5XKZzcoCKrfxXbVH2IjT77fL5XcYKnO6hToVoq+30dNJVY2iuLrjPOAYpe3oQcPZ1RaWHN02rO1wIUIslnMxY1rJSehUiwOBWESsgWB3X2eLKSw8nb3O+Qf9oHeAdR3ZkNvblyW+S5wulj1dqOngND3AsnnBenobzhaL6WKxng3fntwHQ7MtPXUXr22X09G+06k0pz+62lHbF5NjGfOvX/y4nNdQjsjRvnUq+wrGfr+OgsiQGUN4FTc4LTEqXfq+NYkB6I5s2r31t00rteEoNSZir26dGIplyC/TSskn6kVF1EllOvwp2OH0Yu36y6iV3CN5reofJ+ssQg5w6y8bKbhNUVCaRqqCYyOQYZpaOO4Hbbn30RWFCcJgAavSfj6OemjOl6MVTulE/xT8L84FmQzN41wz4GqDoFp0q4RTssJiQTlfRKFbULbMWStsHN0De4/un7ya2dJzHjmBTD9uJ0cFMskJKibcB70rZmYiwhv9F/R0oZ7icypHFVZ096BPbe1ntXG6EMqUeO2jnsu9UnadHTZze+RsyQFtc+HlZjBn+lZYcoDlnUpbUCR/66K1hjX9PHLgo27t+slzRjNl/N07XQR3YGIirWyuMzuO6vTf7AzZOX9a8aPcnuQ5nsD1TqU/w8sTA6/B9XwhQOwQGhYAc6kySm5StSINHbhIGdVgPmW0rTDe0L6UHPiczD2TLzinyQE6JOdk/qrCvFjvkoMVFTNKEkB0virhhPycMkrJhLaEIZ7gUFGwmno7nlnnSo45IvJzJSTmWGOSjZ4kh8PkRN3BujA1qKpcLqfIUeIbkhaQHmX+wKKDzAKzwxB1BPqYfHEBFpSYpVMGgz+JUSoY5HAVxd8dafozJWewTt2rMOGzJKvIIyfIIgv3a1KDhpiYR+TgVzQOWoCjrfBhh4zOQbeltBThUi2jDdynRjKjohqTTqNCHeMycvRdSvVli+n75ASlUCgjXVDg0uSQ4yQ+SYwaWAacIB7osEjOUpfWNgD1DcmZcvA7KPNjfGiKnkWOUEm1KjHepClOxdGEzCv8gOSonelwCwba4Ekk2vYd5G6R5MAGVvvqdPq900gGghJdn9AUAOMhFgCi7caqUq02kyuK0vD8OrQ839KMNSrr4Z9iiagUflodZoieRY6+9QiDDy6A052g2bYtP38oTArgagUZLf3VG/COBV0qve0+f0/I9nb6ATlMZcdrj45jC2yFiSxGlP6KkznbvBroveBeOC9nO16WeZYYz+S5u4U+h9GRQnLw7fud4FjQiVkn40FT7a0PipOjNZO1EK29rIZ12MdjyK7UaPbMGqH5rCHR6LzNHugcUQ48ctZ9nkRJwai+BVpa7CmaYjGR6rDuIEu3vCPW65Kp68j4jNUBImdUD+1I/jX1gkNFS7/NcAY5gNV8KSIHcrMSwiY+TA4AoqvpoExUab0SjcLJcrCUi4+BU8Sy4yFJDnYHBilru2TZUXeIAbdM5IbbX5P7FEhYZGNzpkjoHUkdpCMY55ATDCRwCRTF20b+2se3ZoB9uFzaHyKHRWtBQ0nqqz5AoVuSClt1I/+obZHkGIgcY5NwA+dkrHi5tu6Ta9tBzv455JAhLYX5FmebnrFvlQQcoOttCFb378XHyAHc4NBXEzoSsVwmFm57TAxIFQAUJZl0SVShzcW1pu39ddpMPoccwiWEU3Ubs3zevhXkp+wID9tZ9Us6JJEvOazQigVCYkYa7E58I7xeiiwf6LvaxPrla1By9C1p0Yy0pC+s9SNpDHZzUJgcQyWaUM14fp634wn6hrvG8Rz82EmpziWHJ8mBjqzeI3rDiPGwOCB7SaWNASSnvyTHtk78BKjo5+TgO2Y6nnrGajVOLEBkT8b1nEMO1xeGHXz92IA8Q3IgOc6M7O1LLMccxx+QwzrE3GWY1z45KJ6ccROzmOTABzAnbCbmmxxLzjnTSutNAtcmtOGLk1MjQrOS9DPW9Bwwjsgho7jMUypqKrSIr1qFyXGfku/hYlo7f1oBzpxKkQd0jLPIQdnlSW+9MUGOSZIDl1SulnrnLvXCCzCS+JcCdUUxcqAF1yXVmvh4vuQA81uqEebA+zuLHL5DVOQnmrTMmYQD6I8ROU2y2V2KHJMkp1VY5+hd8r6mfLbkAIE0aY/iBheQo3hufF+Zq5PBe1c/lJzUtGJT06pUWHJYl3TJCcX+UXL0HiHvoafTUAlXqjg5UjJiSA5Rg6cjclI65wYKGUImvR41Ieej04rfp9pofBGX293zl4LkaInOwVYvQQ4xXg9qGM5JvQW9JkN+OiCX4DhOdDY5wCAlUOrFmwAflRy3Edm4yGv9YUPX3NLNYuTwAIqDFNoDyJdMjEDOJHwubw69iv6PhBzo6WvEmPqk48tMnaI6J60CmYoJzvOtoDEaaRy42D2Pgz3YwuQ4s5gcFD2JXasDcp7gdcIph/eqhHgAIeU+/OgXIwfaOfaUvMN7G4fscJmJBPGmXkQOKh669FDztcPCBcmBFvKWJIcRjag3aXK2kByOsO1hiWE8BVndJVVOY9cuSg5rbVM3qD/tiJwsyXk+3LeSm1HUDv0/3t8sSk5baETk4FD2MHyViePqKhGG6EFyAF+J5xXseCk27vF2TYKJWTCeg+qrl+J4Dprn/tAYIMUDgJYpOcoBOaNkIf8e2yWFyUEjJuGtDc1CmVL2MyE5ATnWMLY70a+mqeMEFFYYSkokzLBWFGwuRA6CvUjtiknSZP3E1+t1fkBaWRE5/oHkaAQ5k+d2mJ1iFCNHDoOIZNdL0x5rsb11hTQsMTnAVhVymHvXsB1He154SvwEIb1pdXxugH2gpqw4BhsqqtpIbSPE5ChphfwgJqcfSGIdBZ8d3ii4lGPTgFw98fhQhiaT8mlDcgZ/pTc7/cp6ORNbwbYWExrq6JXf4pKDXtFPITJxU5ZuQA7ycBJyvj/gwgk5TGs0XUzF0aZVzAiE5AAn3RuFQJoctNL6kpIapnTQbUlqsDp7wbRiwXMnzhpJ/EdJSnkBoeQIHtEbRA4KOcVNZW14nUtOuZ6VkIGaIGoPyUF2IDlMJRpAZFxI0tpuX0QOq1stZMJl+dQH5IBBJCfoFw6Im63TO+VFyAH6U+O9fXIoOXgFKht7hmFO36sw+6MNz7P3yt15KztVIUFAjj5PyGGYKSLH/iev2PnkwAcwzE8+SchhdWcVpgxkYzI4PrrjTHIAsMYb5iPkWC8kOQtETptf5RY8mxy4Ai49Jk+OFWkbkgN0tySdOA8S7Xa6GcldZ+oc9Ai0RW6SSEhOon5R52fY2XO7uQfwHZGjvEsOO3hR8x4VctdDww7oVudEdpDCdAZZiW9FcgK13bdGoPiCknHmRDClfWw428l2GeRoiEO8wJqv4rh6qA6lWC3iuAMA9UaUuCGl3vzHAfawBBGwt6yRF+Q0KWE5hpRsb57MFr2+8JhUeDbsob+uu1lZqoWySYFsrSfoAR8tnlKjtfmKXRcjFW4JXHjAuua6JaULxg/T87uYHNLbERMPOhUTGCW7GW3jZ1ON1hz8cERCsn2dUCVA2zUbcVqLFK6yvji2sxORC6ba6raxG073K2j/eejlmIavrjYjcdZjeQEnbrJ8bMPDaeXNcVYEKmnLr9WJGluN0LzwW5MOLPq6ZXWU1z74tk+QbE4SJxxArJOtSbho8faL2Cmpvq+2NtWh+0zsYvoPJDnw1t1iQ7Lvb2b6ydedimewt/uOJvA2O+92d6xl8yYvO04/3EwEVi+RXUkK8mmCFwI4q2by7Pbt9cfrS2/7xFqaAYvWnH4QywOsluR2a/1E2jmNh+2Fp2OQ27YAlMv9R94UNFkzBdnSyRhy6+CIJKA7vNNbi6P9Zo8epmzYp4+0K0BO+JYBivOjkzwD4DRZNg4rAzmJTKKz0eLwI7wHlLmyrlsIsGBbx4zhdySC2pMTVVI2GWCJw1aOO8UB3B34Qyf36SZH50fBPlpOTdbgA3lErxbkvP1wleMaMqrV1LhSqI+r2vtFrgYyuMfs5QtOp7kNOWCwSGWsDf/NQ1D4JrFaTS85nOYW5ABW3xFKD8Uw/82D4wak5XPRY7mN5NQ3ZPYnUxFucvLSOPP9P/4rYTOjZbJ421clJzqP6rkS+V+Bcfb3TWbV+J+e6aDjndngJGv0oVx+ePGinFKo7FYm+yuRAzjL2CeRCdTPG53jyXekzrDOj4kNzLZVXzZCKxmTMx38UuS4fI+ITOCM8rfbqGMB2eD+aDnXUEqrY9uaYf2YYLsqIse7rIUrkwNst+qRefnISRRuc9ibEPqRXuvLSJwuFuIIujTII4iy41Gm+0UtX1chu7upHwiMFMQgoZvYutUh7lhyDnIRgvcqovhnY37ZKnldcqyvXvIHJYJ++0+3snH4Tjp7/YAilK0s55i/H8CVl3LbQi5xGMPA+Qbb/q3eMs8lBwlth7+w6avbOba9iP1xiVm5p14uvRx55OC2B5eekn4DO2fAz0qBZHuioN/u+P8cctDVUvviMyJuYiHb/HIFK9lsb+pvCl+YdLQspgbp5I5z+V+suJFXPq6/7l9Pvq99HQgdKXpVMN112Hl/dg3D80ZeOQCWbOWcHnANPDTT4eJkSjW+7+xrTOdbkUP+uhX4rTg53rfyJusxf7ixWwxXOfL3kwD0gcAOxQ6OZEM01NKmOtyFgc/bkQPx65ODoFsD09Dceffpac7CjwPriucYgdopcqq/BTnYoWu3cRy7fW0lh16iyiZnpP0e5JDa5drkZJ/ez2TF7X9l3GRlBMYqc69ZYRpj+hdD2OysAEUiM1LvFNYwO0kBRYqOs3nuDGbnRAaHpHjd3/LI/evB3Xqnc3869bv+y2jleud0mpbCzO75z81wD+tTUoPh9QZ3yw6wX/LyDVEC/wv/fjX/SQD+1ctL0cOyszbd5AzLOwAeKVzEzcW73MDvJz1zrKP9Vu4ugMapj+tvk3epwexIm9lcMLQk3+o/DU0T+O56kpsSTLCj4D3Fyt3gSys6SeJdSNJxAPu/j5xMdwoKCgoKCgoKCgoKCgoKCgoKCgoKCgoKCgoKCgoKCgoKCorC+D/zFgAsWL6RSAAAAABJRU5ErkJggg==;" vertex="1" parent="0VyX5d_8uN8t0-djkHP3-194">
          <mxGeometry x="9.701025641025694" y="80.27368214285718" width="68.3846153846154" height="42.61538461538462" as="geometry" />
        </mxCell>
        <mxCell id="0VyX5d_8uN8t0-djkHP3-196" value="" style="strokeColor=#666666;shadow=1;strokeWidth=1;rounded=1;absoluteArcSize=1;arcSize=2;fillColor=#f5f5f5;fontColor=#333333;" vertex="1" parent="0VyX5d_8uN8t0-djkHP3-192">
          <mxGeometry x="720.0012121212122" y="97.64302325581394" width="212.12121212121215" height="118.86976744186045" as="geometry" />
        </mxCell>
        <mxCell id="0VyX5d_8uN8t0-djkHP3-197" value="&lt;strong data-renderer-mark=&quot;true&quot;&gt;&lt;font color=&quot;#000000&quot;&gt;coltrane-stage&lt;/font&gt;&lt;/strong&gt;&lt;br&gt;Cloud SQL&lt;hr&gt;&lt;strong data-renderer-mark=&quot;true&quot;&gt;PostgreSQL 12.12&lt;br&gt;&lt;/strong&gt;&lt;strong data-renderer-mark=&quot;true&quot;&gt;us-central1-a&lt;/strong&gt;  " style="sketch=0;dashed=0;connectable=0;html=1;part=1;labelPosition=right;verticalLabelPosition=middle;align=left;verticalAlign=top;spacingLeft=5;fontColor=#999999;fontSize=12;spacingTop=-8;shape=image;image=data:image/svg+xml,PHN2ZyB4bWxucz0iaHR0cDovL3d3dy53My5vcmcvMjAwMC9zdmciIHhtbG5zOnY9Imh0dHBzOi8vdmVjdGEuaW8vbmFubyIgd2lkdGg9IjE0LjY1OTk5OTg0NzQxMjExIiBoZWlnaHQ9IjIwIiB2aWV3Qm94PSIwIDAgMTQuNjU5OTk5ODQ3NDEyMTEgMjAiPiYjeGE7CTxzdHlsZSB0eXBlPSJ0ZXh0L2NzcyI+JiN4YTsJLnN0MHtmaWxsOiM0Mjg1ZjQ7fSYjeGE7CS5zdDF7ZmlsbDojNjY5ZGY2O30mI3hhOwkuc3Qye2ZpbGw6I2FlY2JmYTt9JiN4YTsJPC9zdHlsZT4mI3hhOwk8c3R5bGU+JiN4YTsJCS5Ee2ZpbGwtcnVsZTpldmVub2RkfSYjeGE7CTwvc3R5bGU+JiN4YTsJPHBhdGggZD0iTTcuMzMgMTUuMzV2LTMuMDFMMCA4LjQ0djMuMDF6bTAgNC42NXYtMy4wMUwwIDEzLjA5djMuMDF6IiBjbGFzcz0ic3QyIEQiLz4mI3hhOwk8cGF0aCBkPSJNMTQuNjYgOC40NGwtNy4zMyAzLjl2My4wMWw3LjMzLTMuOXptMCA0LjY1bC03LjMzIDMuOVYyMGw3LjMzLTMuOXoiIGNsYXNzPSJzdDEgRCIvPiYjeGE7CTxwYXRoIGQ9Ik03LjMzIDB2My4wMWw3LjMzIDMuOVYzLjl6IiBjbGFzcz0ic3QwIEQiLz4mI3hhOwk8cGF0aCBkPSJNMCA2LjkxbDcuMzMtMy45VjBMMCAzLjl6IiBjbGFzcz0iRCBzdDEiLz4mI3hhOwk8cGF0aCBkPSJNNy4zMyAxMC43OVY3Ljc3TDAgMy44N3YzLjAyeiIgY2xhc3M9IkQgc3QyIi8+JiN4YTsJPHBhdGggZD0iTTE0LjY2IDMuODdsLTcuMzMgMy45djMuMDJsNy4zMy0zLjl6IiBjbGFzcz0iRCBzdDEiLz4mI3hhOzwvc3ZnPg==;" vertex="1" parent="0VyX5d_8uN8t0-djkHP3-196">
          <mxGeometry width="42" height="42" relative="1" as="geometry">
            <mxPoint x="5" y="7" as="offset" />
          </mxGeometry>
        </mxCell>
        <mxCell id="0VyX5d_8uN8t0-djkHP3-198" value="" style="strokeColor=#666666;shadow=1;strokeWidth=1;rounded=1;absoluteArcSize=1;arcSize=2;fillColor=#f5f5f5;fontColor=#333333;" vertex="1" parent="0VyX5d_8uN8t0-djkHP3-192">
          <mxGeometry x="460.0024242424243" y="97.64302325581394" width="212.12121212121215" height="118.86976744186045" as="geometry" />
        </mxCell>
        <mxCell id="0VyX5d_8uN8t0-djkHP3-199" value="Cloud Storage&lt;hr&gt;&lt;font color=&quot;#000000&quot;&gt;&amp;nbsp;- coltrane&lt;br&gt;&amp;nbsp;- coltrane_dev&lt;br&gt;&amp;nbsp;- coltrane-cdn&lt;/font&gt;" style="sketch=0;dashed=0;connectable=0;html=1;part=1;labelPosition=right;verticalLabelPosition=middle;align=left;verticalAlign=top;spacingLeft=5;fontColor=#999999;fontSize=12;spacingTop=-8;shape=image;image=data:image/svg+xml,PHN2ZyB4bWxucz0iaHR0cDovL3d3dy53My5vcmcvMjAwMC9zdmciIHhtbG5zOnY9Imh0dHBzOi8vdmVjdGEuaW8vbmFubyIgd2lkdGg9IjIwIiBoZWlnaHQ9IjE2IiB2aWV3Qm94PSIwIDAgMjAgMTYiPiYjeGE7CTxzdHlsZSB0eXBlPSJ0ZXh0L2NzcyI+JiN4YTsJLnN0MHtmaWxsOiM0Mjg1ZjQ7fSYjeGE7CS5zdDF7ZmlsbDojNjY5ZGY2O30mI3hhOwkuc3Qye2ZpbGw6I2FlY2JmYTt9JiN4YTsJLnN0M3tmaWxsOiNmZmY7fSYjeGE7CTwvc3R5bGU+JiN4YTsJPHBhdGggY2xhc3M9InN0MiIgZD0iTTAgMGgyMHY3SDB6Ii8+JiN4YTsJPHBhdGggY2xhc3M9InN0MSIgZD0iTTE4IDBoMnY3aC0yeiIvPiYjeGE7CTxwYXRoIGNsYXNzPSJzdDAiIGQ9Ik0xOCA3bDItN2gtMnoiLz4mI3hhOwk8cGF0aCBjbGFzcz0ic3QxIiBkPSJNMCAwaDJ2N0gweiIvPiYjeGE7CTxnIGNsYXNzPSJzdDMiPiYjeGE7CQk8cGF0aCBkPSJNNCAzaDZ2MUg0eiIvPiYjeGE7CQk8cmVjdCB4PSIxMyIgeT0iMiIgd2lkdGg9IjMiIGhlaWdodD0iMyIgcng9IjEuNSIvPiYjeGE7CTwvZz4mI3hhOwk8cGF0aCBjbGFzcz0ic3QyIiBkPSJNMCA5aDIwdjdIMHoiLz4mI3hhOwk8cGF0aCBjbGFzcz0ic3QxIiBkPSJNMTggOWgydjdoLTJ6Ii8+JiN4YTsJPHBhdGggY2xhc3M9InN0MCIgZD0iTTE4IDE2bDItN2gtMnoiLz4mI3hhOwk8cGF0aCBjbGFzcz0ic3QxIiBkPSJNMCA5aDJ2N0gweiIvPiYjeGE7CTxnIGNsYXNzPSJzdDMiPiYjeGE7CQk8cGF0aCBkPSJNNCAxMmg2djFINHoiLz4mI3hhOwkJPHJlY3QgeD0iMTMiIHk9IjExIiB3aWR0aD0iMyIgaGVpZ2h0PSIzIiByeD0iMS41Ii8+JiN4YTsJPC9nPiYjeGE7PC9zdmc+;" vertex="1" parent="0VyX5d_8uN8t0-djkHP3-198">
          <mxGeometry width="42" height="42" relative="1" as="geometry">
            <mxPoint x="5" y="7" as="offset" />
          </mxGeometry>
        </mxCell>
        <mxCell id="0VyX5d_8uN8t0-djkHP3-200" value="" style="strokeColor=#666666;shadow=1;strokeWidth=1;rounded=1;absoluteArcSize=1;arcSize=2;fillColor=#f5f5f5;fontColor=#333333;" vertex="1" parent="0VyX5d_8uN8t0-djkHP3-192">
          <mxGeometry x="219.99666666666667" y="100.00302325581394" width="212.12121212121215" height="118.86976744186045" as="geometry" />
        </mxCell>
        <mxCell id="0VyX5d_8uN8t0-djkHP3-201" value="App Engine&lt;hr&gt;&lt;font color=&quot;#000000&quot;&gt;Serviços:&lt;br&gt;&amp;nbsp;- webapp&lt;br&gt;&amp;nbsp;- default&lt;br&gt;&amp;nbsp;-webapp-stage&lt;br&gt;&amp;nbsp;- stage&lt;/font&gt;" style="sketch=0;dashed=0;connectable=0;html=1;part=1;labelPosition=right;verticalLabelPosition=middle;align=left;verticalAlign=top;spacingLeft=5;fontColor=#999999;fontSize=12;spacingTop=-8;shape=image;image=data:image/svg+xml,PHN2ZyB4bWxucz0iaHR0cDovL3d3dy53My5vcmcvMjAwMC9zdmciIHhtbG5zOnY9Imh0dHBzOi8vdmVjdGEuaW8vbmFubyIgd2lkdGg9IjIwIiBoZWlnaHQ9IjE2LjAyMDAwMDQ1Nzc2MzY3MiIgZmlsbC1ydWxlPSJldmVub2RkIiB2aWV3Qm94PSI4Ljk0MDY5NjcxNjMwODU5NGUtOCAwIDIwIDE2LjAyMDAwMDQ1Nzc2MzY3MiI+JiN4YTsJPHN0eWxlIHR5cGU9InRleHQvY3NzIj4mI3hhOwkuc3Qwe2ZpbGw6IzQyODVmNDt9JiN4YTsJLnN0MXtmaWxsOiNhZWNiZmE7fSYjeGE7CS5zdDJ7ZmlsbDojNjY5ZGY2O30mI3hhOwk8L3N0eWxlPiYjeGE7CTxwYXRoIGNsYXNzPSJzdDAiIGQ9Ik0xMi4zIDcuMjZsLTEuMjIgMS4yMkExLjcxIDEuNzEgMCAwIDEgMTAgMTEuNDlhMS43NCAxLjc0IDAgMCAxLTEuMzMtLjY0bC0xLjIyIDEuMjJhMy40MyAzLjQzIDAgMCAwIDUuOTg0LTEuMzgxQTMuNDMgMy40MyAwIDAgMCAxMi4zIDcuMjZ6Ii8+JiN4YTsJPHBhdGggY2xhc3M9InN0MSIgZD0iTTEwIDMuNTJhNi4yNSA2LjI1IDAgMCAwIDAgMTIuNSA2LjI1IDYuMjUgMCAwIDAgMC0xMi41bTAgMTAuNzRhNC40NSA0LjQ1IDAgMCAxLTMuMTU3LTcuNTk3QTQuNDUgNC40NSAwIDAgMSAxNC40NCA5LjgyIDQuNDQgNC40NCAwIDAgMSAxMCAxNC4yNiIvPiYjeGE7CTxwYXRoIGNsYXNzPSJzdDIiIGQ9Ik0xOS42MiA5LjE2bC0yLjU2LS44MWE3LjEgNy4xIDAgMCAxIC4xNyAxLjUzIDcuNjIgNy42MiAwIDAgMS0uMDggMS4wOGgyLjQ3YS40NC40NCAwIDAgMCAuMzgtLjQydi0xYS40NC40NCAwIDAgMC0uMzgtLjQyTTEwIDIuNzhhNy40OCA3LjQ4IDAgMCAxIDEuNS4xNUwxMC41OC4zOGMtLjA3LS4yMi0uMjEtLjM4LS40Mi0uMzhoLS4zOGEuNDUuNDUgMCAwIDAtLjQyLjM4bC0uOCAyLjU0QTcuNjQgNy42NCAwIDAgMSAxMCAyLjc4bS03LjIzIDcuMWE3LjEgNy4xIDAgMCAxIC4xNy0xLjUzbC0yLjU2LjgxYS40NC40NCAwIDAgMC0uMzguNDJ2MWEuNDQuNDQgMCAwIDAgLjM4LjQyaDIuNDdhNy42MiA3LjYyIDAgMCAxLS4wOC0xLjA4Ii8+JiN4YTsJPHBhdGggY2xhc3M9InN0MSIgZD0iTTEwIDcuMjZhMi41IDIuNSAwIDEgMCAwIDUgMi41IDIuNSAwIDEgMCAwLTV6bTAgMy43NWExLjI1IDEuMjUgMCAxIDEgMC0yLjUgMS4yNSAxLjI1IDAgMCAxIDEuMjUgMS4yNUExLjI1IDEuMjUgMCAwIDEgMTAgMTEuMDJ6Ii8+JiN4YTs8L3N2Zz4=;" vertex="1" parent="0VyX5d_8uN8t0-djkHP3-200">
          <mxGeometry width="42" height="42" relative="1" as="geometry">
            <mxPoint x="5" y="7" as="offset" />
          </mxGeometry>
        </mxCell>
        <mxCell id="0VyX5d_8uN8t0-djkHP3-204" value="" style="strokeColor=#666666;shadow=1;strokeWidth=1;rounded=1;absoluteArcSize=1;arcSize=2;fillColor=#f5f5f5;fontColor=#333333;" vertex="1" parent="0VyX5d_8uN8t0-djkHP3-192">
          <mxGeometry x="744.7564102564103" y="247.7464285714286" width="179.4871794871795" height="78.2357142857143" as="geometry" />
        </mxCell>
        <mxCell id="0VyX5d_8uN8t0-djkHP3-205" value="Cloud Load&#xa;Balancing" style="editableCssRules=.*;html=1;fontColor=#999999;shape=image;verticalLabelPosition=middle;labelBackgroundColor=#ffffff;verticalAlign=middle;labelPosition=right;align=left;spacingLeft=20;part=1;points=[];imageAspect=0;image=data:image/svg+xml,PHN2ZyB4bWxucz0iaHR0cDovL3d3dy53My5vcmcvMjAwMC9zdmciIHhtbG5zOnY9Imh0dHBzOi8vdmVjdGEuaW8vbmFubyIgd2lkdGg9IjIwIiBoZWlnaHQ9IjIwIiB2aWV3Qm94PSIwIDAgMjAgMjAiPiYjeGE7CTxzdHlsZSB0eXBlPSJ0ZXh0L2NzcyI+JiN4YTsJLnN0MHtmaWxsOiM0Mjg1ZjQ7fSYjeGE7CS5zdDF7ZmlsbDojNjY5ZGY2O30mI3hhOwkuc3Qye2ZpbGw6I2FlY2JmYTt9JiN4YTsJPC9zdHlsZT4mI3hhOwk8cGF0aCBjbGFzcz0ic3QxIiBkPSJNMTYgMTBoMnY0aC0yem0tNyAwaDJ2NEg5em0tNyAwaDJ2NEgyeiIvPiYjeGE7CTxwYXRoIGNsYXNzPSJzdDAiIGQ9Ik05IDVoMnY0SDl6Ii8+JiN4YTsJPHBhdGggY2xhc3M9InN0MSIgZD0iTTIgOWgxNnYySDJ6Ii8+JiN4YTsJPHBhdGggY2xhc3M9InN0MiIgZD0iTTQgMGgxMnY1SDR6Ii8+JiN4YTsJPHBhdGggY2xhc3M9InN0MSIgZD0iTTEwIDBoNnY1aC02eiIvPiYjeGE7CTxwYXRoIGNsYXNzPSJzdDIiIGQ9Ik0xNCAxNGg2djZoLTZ6TTAgMTRoNnY2SDB6Ii8+JiN4YTsJPHBhdGggY2xhc3M9InN0MSIgZD0iTTMgMTRoM3Y2SDN6Ii8+JiN4YTsJPHBhdGggY2xhc3M9InN0MiIgZD0iTTcgMTRoNnY2SDd6Ii8+JiN4YTsJPHBhdGggY2xhc3M9InN0MSIgZD0iTTEwIDE0aDN2NmgtM3ptNyAwaDN2NmgtM3oiLz4mI3hhOzwvc3ZnPg==;" vertex="1" parent="0VyX5d_8uN8t0-djkHP3-204">
          <mxGeometry width="30" height="30" relative="1" as="geometry">
            <mxPoint x="15" y="15" as="offset" />
          </mxGeometry>
        </mxCell>
        <mxCell id="0VyX5d_8uN8t0-djkHP3-273" style="edgeStyle=orthogonalEdgeStyle;rounded=0;orthogonalLoop=1;jettySize=auto;html=1;exitX=0;exitY=0.5;exitDx=0;exitDy=0;entryX=1.022;entryY=0.415;entryDx=0;entryDy=0;entryPerimeter=0;" edge="1" parent="0VyX5d_8uN8t0-djkHP3-226" source="0VyX5d_8uN8t0-djkHP3-268" target="0VyX5d_8uN8t0-djkHP3-204">
          <mxGeometry relative="1" as="geometry" />
        </mxCell>
        <mxCell id="0VyX5d_8uN8t0-djkHP3-261" style="edgeStyle=orthogonalEdgeStyle;rounded=0;orthogonalLoop=1;jettySize=auto;html=1;exitX=0.5;exitY=1;exitDx=0;exitDy=0;exitPerimeter=0;entryX=1;entryY=0.25;entryDx=0;entryDy=0;" edge="1" parent="1" source="0VyX5d_8uN8t0-djkHP3-248" target="0VyX5d_8uN8t0-djkHP3-206">
          <mxGeometry relative="1" as="geometry" />
        </mxCell>
        <mxCell id="0VyX5d_8uN8t0-djkHP3-262" value="&lt;b&gt;Webhooks&lt;/b&gt;" style="edgeLabel;html=1;align=center;verticalAlign=middle;resizable=0;points=[];" vertex="1" connectable="0" parent="0VyX5d_8uN8t0-djkHP3-261">
          <mxGeometry x="0.1419" y="1" relative="1" as="geometry">
            <mxPoint x="1" as="offset" />
          </mxGeometry>
        </mxCell>
        <mxCell id="0VyX5d_8uN8t0-djkHP3-248" value="&lt;b&gt;&lt;font style=&quot;font-size: 17px;&quot; color=&quot;#000000&quot;&gt;Brokers de SMS&lt;/font&gt;&lt;/b&gt;" style="sketch=0;points=[[0,0,0],[0.25,0,0],[0.5,0,0],[0.75,0,0],[1,0,0],[1,0.25,0],[1,0.5,0],[1,0.75,0],[1,1,0],[0.75,1,0],[0.5,1,0],[0.25,1,0],[0,1,0],[0,0.75,0],[0,0.5,0],[0,0.25,0]];rounded=1;absoluteArcSize=1;arcSize=2;html=1;strokeColor=none;gradientColor=none;shadow=0;dashed=0;fontSize=12;fontColor=#9E9E9E;align=left;verticalAlign=top;spacing=10;spacingTop=-4;whiteSpace=wrap;fillColor=#E0F2F1;" vertex="1" parent="1">
          <mxGeometry x="180" y="-680" width="830" height="290" as="geometry" />
        </mxCell>
        <mxCell id="0VyX5d_8uN8t0-djkHP3-250" value="" style="shape=image;imageAspect=0;aspect=fixed;verticalLabelPosition=bottom;verticalAlign=top;image=data:image/png,iVBORw0KGgoAAAANSUhEUgAAATcAAACiCAMAAAATIHpEAAAAvVBMVEX///8jHyAyu+2gXaYAAABwLJAAm98aFRc+OzweGhshHR6XlpZnZWVeW1zR0ND4+Pjx+v4PCApUUVJYVlYoJCbp9/285vibU6LFxMQStuzWvNiscrHYwdrk8/vHstILAARHREVoGIqve7R4NJMAld359PmlpaXy8vLn5+eBgIC1tLQuKiuOjI2cm5vo6OjZ2dl5d3jKyso2MzSura7AqM3m3OuYSZ5gAIVnFop+PZcAjduoaq2HhYZ6eXllY2OZhdohAAAJZUlEQVR4nO2beWObNhTAzaYOBHZcOW7rruvwttb4thPvnpPv/7HmgID3dGHL0PR4v/+CBUg/dDwd6fUIgiAIgiAIgiAIgiAIgiAIgiAIgiAIgiAI4mvnRwu/K/zx3Bn9vPj45xszv2D++vm5c/p58fHN92Z+e4H4hbwhyJsf5M0P8uYHefODvPlB3vwgb36QNz/Imx/kzQ/y5gd58+Ncb3+TN8THd7+a+ec3xAvydh7vcPV789NzZ+gLgbz5Qd78IG9+kDc/yJsf5C3n5SsL7xXKG8hbzuu3Fj5g/n0lbyBvOa/ffmfmB8yHl/IG8pZD3vwgb36QNz/Imx/kzQ/y5gd584O8+UHe/CBvfpA3P8ibH+TND/s6ksXbf/hY/p8/Pmv2WyMJxxW8f8YNL828V+rh29LbR4Vhl6X5dCRpXBGe483CS5u3r5REBBXXeHtF3rwgb36QNz/Imx/kzQ/y5se35m2Tkjcf5oyTNx+WIasY+D/mm/PWG+5q/J/y7XlrB/LmxzN5G27n8+32C15juc7bdjRw009u1Huy5WKayo6ZD/Tfd+Zn9h+S5U2Gk+5v6983mfog+bqkSjI6JTnUt6zBZ5vdDhD9xWZieWDBdd6GLGxAsBF6/+SWMcFjGQnEp9/D9Rw988byTCFOoqME9uUHkDRN70w5nLC0SvF4+jupb0nHQ+OTiredPu10Zm8QV7bTVR0N2RBTUIqIhervsWBHmL8b5ngYFyxaVkmHYQx+Yth/zo7VKdikh+cLLKnS3Zleylma2Mxd6W2kadDJ85sXs8/MmtMVqEVOb3lpoqptL4CFQCz0/PXr/MVhr2edZ83NL43TldaPtOJtf4Y3IT/rfCVsSTirs9fk7Sn1WqbdwbRxrFWOTNTVTRwd3nq2l3I268JbYlVRI73NhcMxT6tG1uztVIUfZWJU36uKXbEEz2I7lzcOWrzyrrX61Ba8Lc8pZF6cbOzsCsPoEm9BOjC8X59v3tZa+bTn8nZr/6jGGneltzMKGYu8+QxwzeSnMQvnbnOJt7IWoJEhZkpD3cLqdnB6WzgaDjP0ca/U/dQL496RHjUobxV5CXHFDNl0/zBiMK9xmpm88eKZejOShTnCZ7AlztysXjSKReb0NmcCFAE3DX5vKPhrhcu09YbrkcLtGL+U55UAtVLWz3uz7RFECdKv4i2WD41iliqFiWR54ee4xZmb6mtG1nXL3R6UIWIp/FCWsaFlAlQ3it5tBotXx02wFsZxcQ16K2KHJ4a72Qo3YFm58MiAYmzolMmo+Mz13mwG2w1fteXGwQEVT+zzi/fcnN0ELL/K4RB7gz1WgltwUeFQB5CiigEcVSU/e508i4A4faRuHRgynfI7zi+itse2IHlQC5Vxq92b0knKHg6+j0cwOfhYZQx5wf5CBoaccH+Vk3PAA7osGxytcB42oE4U3a/DGx4FikC2t0YjA5hrwaC4un7BvgzYiij7kO5AHVmQFkVD01iG5t8oVMh7J5e3IapchWc0MggQpALJ9YBxgbdMC5q7Y85QK70vr0KXWAVQWlROlzccZslKNLL04DGY0lcByiX7gGA4ViOctpniViq/0gSokHF7BZjhFplzekPrFrK3nqBrN4akMvR+4hJvIGsicSe9kg3uuI2dsdLFgthU5FMGp7cMNUo5xQBjC1gUgaWuV0ou8QbSmtZa2gMtTwThtLwOVnO0LwfGyKKjd3rDAc1eK18Qc5kQdoWgd7rE2yE9O+l1wJDnNFuscgs6CiXEQpoKD25vcLgue/u5ofHC7wHnSW5v87vlLFmvjw8PD4tjAj53eMVWayNr3Eo31Q9wOOURXskfgblQvjrk9vYg4KPkxQGU2deuwU9l95bNBk8r8ak4kS/LC8Mn6gI8IQ9H9S9oVs7xKgBXb3F7g9FaVY/gyCAn8JkW3xTYvG37LA2ta3CdekN7DXFazwqGjgxBiqHW7Q2ei4nH5VW4alCMymC4CR/B/RZvB33f41N5W6TwRXK5K+dsb3m7c3s7GL0hG3kRYewFJ5dmbwvWkMPuvOEdIfSN2/SGVlAqb1s0MmzRUFGvqTxh9IYXDD6ptyFHrVTABZ3uvfUeQTN7GgZg6HWE95u87Rq1dedtj9aZlXWXoHNv6owEzt7Q1NLkDW9mhuVhAvYJxlM01wmEEhihEUMZT+EeeT4+ur1NzN7wyDAHNUiZ1xm8oeoWsv5sOcm5W4D4rRtvGWqJXN3InKL4rW/ljLjX5g36EBsQrcABqmf0BkObEJ7KgGNyN94e8XRePakB51lh00zPzxscGeLovvqMuKc1egNflY/h+zr3hpfGU80M+qJNMxY/b+jTgRUkdS6le0N7+huYtmtvW2FadAPAzrxxj8PTm/FkjF73dW9oWRjtlHbtbWRaGofgibfh2BDE05v5aJT2lXRvUDjOW8fe8NK48TgFLFPTEqCvtw2ar9hepnuDT8T7iN16U5bGI1MauLxdbcxb8PW2Nc2VtMrd4A3Fet16i4xL4xi0VNKQB19vaNQuXzVSbm/yhrYROvWG53ZsY04Fl2mD9NF1INrbm2Fk0LdTdG/wfXgRv0tveG5nbqU9bRN/5dge8vaGP06eQGgfSPdmXC3O6dIbzmtq9YFHO85Wx8ncXOv8vc3UkUHo2+y6tyFHR8GOO9Pz2va2xlnl0VRlVKhUDxhywRi/r5P1jectL/OWqQ3VEBIZ5gv4hIFgQVmIexA+t+tNO07MNUJ5CKqvH8yLQTJRnRrx96aeNjadWzN4OyiFqLIF6mHL3lynFKvcF6Ubus+pBmkZaV3hTTmqmRoGKYM3dHjCQsvezlpYk/HaXLgP+JZ90RXeehF6BTr4JDGtv230gbhbb9vmFwZ1SOc8UB7wMtQ63xvXvKGRwbiCYFwnn7o3ZVr3ZvlvCdVbObZnI8f2RzWTvKa+Da0xRYnRWzZuEtdyOz1r4yCtVw5nIrU21vIw+DXe4MiA92NKzPtZ2dTynzwdeWveCArwmbQsCZilnyunkld5A2E43o+pcmzZdz6MmasStB2/LZgI9dgDo+w23C1WT6cJQvW+cqXshsF7dW8gxAn0DEXVY80z5QTcL+BmZW/SDxnTsyVf1fo8az2KmtDemd0d1vvbKU5Vzr1uVvCq6u0O/jrV83OofjeXdHNf336vTid2y/V+oGRLJu30PBJBEARBEARBEARBEARBEARBEARBEARBEATxNfA/1SsSvVSePGcAAAAASUVORK5CYII=;" vertex="1" parent="1">
          <mxGeometry x="200" y="-600" width="276.99" height="144.28" as="geometry" />
        </mxCell>
        <mxCell id="0VyX5d_8uN8t0-djkHP3-251" value="" style="shape=image;imageAspect=0;aspect=fixed;verticalLabelPosition=bottom;verticalAlign=top;image=data:image/png,iVBORw0KGgoAAAANSUhEUgAAAOEAAADhCAMAAAAJbSJIAAAAkFBMVEX////xLkXxK0PxJ0DwGzjxIz3wDzLwBi7wFDT95ujxO0/5sLb7z9P1hY/wACz5tbv0b3rzY3H/+vv71dj2k5v+8fL6xcnwACn4rLL5ur/1f4nzYW/3oKf0doHxNkz7ztLySFr84OLyVmX2ipP3n6byT2DzWWj6x8v0eoXvABr0cn794+XxQVT2mKD3n6fvACLADDKzAAAJs0lEQVR4nO2deXeqPBCHISQEXFBBFJe61C7e1r79/t/uZckyoWKlLRV65vnjnkOIJT+STCYhmWtZCIIgCIIgCIIgCIIgCIIgCIIgCIIgCIIgCIIgCPKBeJtMj5PVanKcJtv41qX5cWZLm3uUMSeFMepxezm7dZl+kOgu8BixDQjz+DG6dcl+htmJM/ssjO/+QEVGJ5ec15fXpLvreD2Gx+CCvgwnWN66kN8hcirap9FWSXercT0vVyDJbOmHxHly65J+kaVr6GDUdTf3k8njxnWpaVr58NZl/RJjCrub6wwXvrzlL4bMc8Bt7+6WJf0iUCCbvwzK97fjOeiktHsSh55un8HxrJPmvwBD601/u4TfZMR19Zz2Vbminq7oYPGb5fs2r3NtRQ6XMi71mwj8SxnbRo9cWzV99S6c0++U7UeYqsYXbD/L+xyo5vzwG2X7EXxV6OD589wznbszs8axHOpc7ayEoZkHXK+lZ8C6MmTsg3KJ/SXlATmoKooPThDQobwey4GxK8bmThSYOCJhlI/thHEx7D8HmdNG2FxYoVD6cKwb84xYWkdXTG8XMoG85yNj9C473lx004V0D4Kw6q+2ibUwpM5jcR1qB5z0sgRbDSWEit/sRBLtxCzjJErrijaZAAfVTQePmfbnbG9U5Hn2zLfSauRQQeQAPgaTCJZ6nwfgcLOjyLQh3Rkw+rTU4O6hwqU2RHmdrUQm2bRpB7zToxDAZW1MoMLUSV1ChWORyRf+KevAXFi0N9VIrTegyEuraAT6JV1X/qy1hIGurQJfzzNsN8uhpxP2XHU7WbPBTUpdh70YG+hIJU2V8QzyxERJdN9UJtl93da7NdLue2CJ8IXnTZDMxTz+UMztCT/qPAP5uw/LHW1D9jIOzf6IcM8LTmqiMeul19yGdvNV1n3r1/nl+M5N/2s/mxnNz5/NzLWNmH9o3S2lQuGnhH9eYXfq8Gw/DB92lN4Drzp5pHT3AF+CL/th652ambT6oJttXZoaT4cSkbZ3qJNNLKDdjKQtvWLd47aokmqbOHgXbjXhubV5lQvBZK6HlMWZN9NOVH/6TyXprzDOLrs+KUeVEJVpKn2a9s+B5fx3IhNGYD7Io6zN6mtP9bqnQrZa+WgxK1FDXCbA2RJ707WVX8uFGenOqslGi3lgJZNx1fxQdkM92WgvkVuqjdWl+aFsy3IS2X5DY6mOqBYkYKvMxnO4bkPF5EItfXSgG1rWkOn6ytiD+WFmKWNwPRfO6rL0m3YTyemfrMSjqjQ372VvyrhSsWahPnTwLjRSvZyoOtl9IYlwsco/Fl3Vk3ZGDBXdWEy0wAq2K0e7N+5R6tK+zJF46bXnSqegr37Q+smhQC1qczUnfE76xuR9myTKAX2VbbRYEu8CM+m1EPsKHywk6oW03utWqEH+ii/XYU9lXn2auTXoj8Ds9EktxhvlEPAOrOgrEuVdO87FASBiSqDb+tm9wUQ5MiS44Gq+6T1D7OX3Svcj9LQ3Sk8V2ysHYMNQp/aa5MRgkyXhT2c2nTzfc53FIe2f+ZbxKdhg6bj2m1GR0ZTAzYmO0yUrI4kduL8y25v/NEwWi8VoPbzn5t59x+6iwHSk28EdppkQRnOYY6bTx+41UcGRf7KPvTC2HfgqWsmMfrqVnbX/W8xFwmPgXNLnzJedbaGS/SqorEcWTF5vXb6fYH8M6JmKdChfdmNKfwXhaJLOgbUPQLLTa5NF59unyWB9t+Ocu276z+5u3d1zMpcJY9+P/1jVIQiCIAiCIAiCIAiCIMg38ZPVVxbNTpuehCysmKirzcqyVvqmfePTpNFbj9P5Vz76caKgfcvXl87GsjaOvnnL8APboeNmHzi/tDsEbInOFJpnhDf6Y9ztttIuXlz5/fZvKgz/6Q9Jf1QhOB6JCs8SOAo3KSu0mbrp3crSfFvheDWRPA3KCpfg5q2+fX9boYlfjrfQAqDCyhE/Egw+8wmuVRgO+tPl8bCeNXxKePGPwyBz2h9RFLU6nHsFc7GPhAX8DP+issLDu74JTuktVnnsU8Yo5fa0SZGj0g4g4YxoL0UcY1KbfsXJLXDSiWz0z71tWeFQD0X6pOXIgfvDCJvfNbeBqqwwx5loE1+EudjrllycLgBnSjZ3urTeB0tzRmH86JV3HTHe2E7U8wrvdKEJy7KtdbZiVNvpTaSHYz2FkXduOw5vKlLPeYXjhU7Ojy3twKbK+/Q6Vnui04ZZrw6jD9EzxU8biihV0UpDrSALaAIEFceAQECaAMZy+VxhXBm/FkRj+AWFoNKyA2tGruzgsi53mreWwl31jrF5I9tVqhT+pwvmmRF3ctujvc3UE62jsA+c2DLNBEHpv3vGM/PNou6TivZh5x2RGyWhKvSMnZ/1qqPQ3GVLzX2OjZwgCreDLZDIRv2UZAAGwLSWBuaLd/faEJGdVUfhAvwlwsdJsuRw4/R9AwozQA15KhH0tOPU3InI1vrMaHa+u4ZCEJyI0LzbxScgsaGQUuFZhc/6bW9Opvkj9zoOZjaW1FAIXWBhV0J4/rSZ6AvnFVrAXf0Q6VnvSMx8uKsVLsA950k+CHgTrJmotRUKxxc3AssiHWopjHTD0BP+V/0DdjxTvsYUnh1HynjbWgpB09cNEjy/oaP7FQoNP6aKLAxWDYXAbOtggzFQ2MxBqQqF1uOHZvphc3dRoi+1Ul1dQHZD576NVQyQvi43U3YoSyya2vUKY/goOe0FI0hDUSSNOgSu4d70ZLIKLrtcxfhVY7SAZ8N6xXrIGvxRt5mN1FAhsWdxHL0VRrs0SqSG7s6sRGHxaygEV7bDEj8ejKGXwxoRaPg0qafBuScO1ZcapTezFmbDFY2qhsLIfJbLjdlwQ8Nh6g3bJURcga3ZKLkOyCJT/LoKL02eGowD+lR+qoycYPxXD7nxg0Ev1WJhHYURiKBRhjYWh/+hbDSlQsOtye2m4QbIRlVrBjysdCSc5taP/fJ7lQqNbpcvFhtugLR8tRRajxVHpojb4JHMcemhUiEMyiLSgBugLF89hdburESn0UA9YekEqIpgAvSI4oFYOyogVE2F1sTo3+LeptnFfZ8YvYOVQwHbys6B9QsVvq2uQqvvlqqRzZs/c3oIKMscDuIwyk+y7Pt3JqBygaHnUcG7/O3EpSpta/nv6soj2f92oS7nKtRLOFXf1dMn0uDlN44shovlI+EueVz2wePWU8FB9pJ90i9I1Hn8gUxKE9Oa1lf99E1F5k3FbLkJ3JTAGfe7eer7Gvz9/hVPvSEIgiAIgiAIgiAIgiAIgiAIgiAIgiAIgiAIgiAIgiAIgiBIG/gfH0yG4Xd5TooAAAAASUVORK5CYII=;" vertex="1" parent="1">
          <mxGeometry x="500" y="-647.5" width="225" height="225" as="geometry" />
        </mxCell>
        <mxCell id="0VyX5d_8uN8t0-djkHP3-252" value="" style="shape=image;imageAspect=0;aspect=fixed;verticalLabelPosition=bottom;verticalAlign=top;image=data:image/png,iVBORw0KGgoAAAANSUhEUgAAAOEAAADhCAMAAAAJbSJIAAAAzFBMVEX/////WgA3Ojv/VADg4eEfIyX/TQD/VgAoLC3/SQD/UgAuMjM0NzgpLS6rrKx/gYHR0dKMjY5MTk/b29vs7e28vb1jZWb4+Pj/ZRb/9PH/6N9SVFX09PT/+vb/49i1trb/oH//w63/gE7/2cwcISL/lG3/hVX/nXn/cjZERkcAAAD/kmn/zL3/7+j/ilz/rZCZmpr/xrL/aCv/f1P/tp3/e0X/1MX/qY3/ZyL/k2n/cjtzdXW6u7v/tZn/l3f/dkYTGBqen6BpamuPkZHrGnXhAAALPklEQVR4nO2cC3eiOBTHBeSNWlvfr/q2rtrWblu77XTGmfn+32mBJDdAAbHaMc65v3PmnE0JkD83uY+Am8shCIIgCIIgCIIgCIIgCIIgCIIgCIIgCIIgCIIgn6LbXK16q1Wze+qBfAWt9Wb4IFmmqZmmJT0MN+vWqYd0TJ5nDU2zdF1i6LqlaY3Z86kHdhxafU1TuDiOrmha//wtORq6kzIZyxyOTj3Eg+g9mXHWC1nSfOqdepifpjvZqY9onJypc11aafMzNFet5akH+xkmZkZ9Hubk1MPdm9XNRwPquqIolvtP/zh5rZvVqYe8Hz1JCWlTLM3UH/5dLCb9yWLx74NualY4hCjSWTmckRYYva6ZjdlgFPYm3dFg1jA1JdjtjOLGiC9BN3mZrpsJ/ZrrqZvq8MV4NhJ7GgxaazwmySM0HxuB3mcyUVcSM4slDTL0H0jMKenSebibB7a4skbyLgQW5eGLx3YUJswiZsiA3d7yvf/91qPff1/2QuIHTKJ1BnFxyQZr8tqouZ64flOzvFjoYbm1k/nyPeCBwDeZwmc3Xf2DBddPseWTVzwNQQ9YURc9R2VzFKbbQNKS029da6yTThSUXsQU3acUfUTjkJzJjS92yHii49Qe/WY3nLzFYjXIqQMaF/WnE45/J8xh6BJpD3cLdCXeks4N+nSETm2GdJDWu99ca8m6AlCv+05Xoj48pYR0WuDzSRx4Ca9Bt3qyPKLVk/7q926y52GKuz3VZ1aY+s3nQA3shgbrZfq9v9ls+t+HDSuYcbN5OWUzoH9CDemwVWeRWHgLq1B3C4xwytkaBLysQiLEgGVDyh8feUaeYZr5arqwCpXXuHk3aoBE3f/DitlcE3WrGCYp8f8gWE/Ip1egkMbAhujTlA2QTroNm3SJxTsLgcz3TpTQIxKOFYyXLEMW/fWbxFOYERUSEmEhamLWiRD9qM2gIrojx7tNDk2vwReRhTiCK6zjbnByYFaSaMj9BhG81kwO3QJ+hFN8yU14KJtTiUhlGjZIL+xZc1IwzNOVBkajrgZm7fQ0EnZww9YdcZ0waU2/2Q3vEFu+0VqR+PCwe+mekC7Yh+SVMANJFt4NJ+GKr7ALColzGoKdRayDIa2kjvGORUdi0liF3BuRags8j5a+B3kawE1QhZtwqRCvEPI84m9BoSmiQlhTysxv97MolMIKZ6BQxPKi9xmFepJCEbcyuA1J0vYZG06EtmHiOiT17Q5Pcw7rEAJe1JeS4L6fL7VEjBY8Hv7w2xAPLXI4TiHYnSaiP4SOhzynefGbzxlyml4kWX8ROqdJzkuJX3ywdI5FFucysvkkeF4aqS26kRnYGjY4w1XkFL8pem2xjEw5ZlJlkXgKzMpIqaGJ+QYqWuPvdowwkaObbYLW+GAROt53cKZJc24a2X6EfZqXPzTifYnstUEax2qjKBvYbqSORvi9tufEql67/ZhnPj+BQGoz8fdLeR5NbNbnIVDRpMn7stfydqFWrdHy7lYJvFik0xiWoX5KEanANCWvAHuhb/cU7+U9QdOsUIZDHcuT6JM0OM1I4jzN8voQEtlmZJILCZNE97B72T7A1IifYb5X0ISGEH0H3M/yitSkO8bSObwDhtfa9D1+7na3RPM76fpIuyoCvwLOBbIUnZawd1r6WrTYs4BvMUT/fG/GPothyehqEXrdG0K3tAnzKgt24uxUQ89Il72j599Erd5vzI8qXXXmK/80k30TpQv/TRR/eR/8Qm217N8omuZ92mZ5H7VpmvK6WQb2YuK+hhOWGdR8kWx01RutB4P3wWA56kU2mvi3iaLPUZ8b2DBbZPy+dAFVlJi7F1Ga/Bth/TFD/0edfyMs4iZiDC2eVGvS3Y7vvN8lXmJoIu4Dx9IL1g3mcJCUZ64GQ5M7WV30SBikF/q9hWU2Fo/Pq+Ci7DafB4uGGYwhZyXQnahxv5l5+TG8/W/x3+3wx0vcb2bOZooSmrG/e9L9z7z12N89nYmTCTDL9ONDqt08izgY5Vn6aMZ4LOkMMpk4ujMzS5GvmDPhc9FEesOdGhVzeFY+9AO96Y7fck/PW5/HaiPFV4hu/SRtBN502odR/0ELxT8vPmoPfaE3ZPZltby7fZXIhqkmvd7eLf8S60XoNlut1t/5vzZBEARBEARBEARBzp/ONaWyxzmVTv3A21aufxevDrxGRvL/GD7bi4wnXJTmtmE789p9PrXbz6LPz9ijxbFRMMZv+w72U+RV2UfNpjDfVm3H6+/Y22pax+K24GFs46xd3fr3NP6IxP0UXm0dmTFOnddFg/Qy4hRe0quMU6fBkdhLYcfmAmU7tWuawgq9p2xcf27Qe7GXwt8FLtBpp3ZNVThmCoufG/Re7KVQZiZ0bLtQSu2aprBDj8lq6lI+EvlxdoWsr2zPS2+X6c8/dR2WCvQ5HRp0srCPDat01Ha6+XxSFXZkT+IOb3w06pQMXZlCNYMLTFWY65TsrVrLGoK/jnokHjCFRiema0RJWGH0Sin3/HjtA6mw3KPCG96z7fysGYZqyCX6oPPuoZJNZ6nfDS5xUb70uhrzUmDWgUL3wbzZbtIEV/LOKFK8RpXc31VWL9a89GpePmo+lye5R8HP2i78hiHncvdbg6Yu45r/VKvuIZtFCq8Tm35Fm2Y5bl9DvWemZArti7lq0yu12ewuj0nCM/caJdX773E5V1TZPbe1PbLknQqDnuaCNIxqjflzb4yON7Bq4C8EX0v+0nCCfzTki7BCOXDcGVMjl8mzci59hbRRUvll7MLxzBinUC6ERu14YuIVXoT1+SquwwpDUIlxCmU72NExjiYxVmEEL7jHKrxSowJdSAyIV+gYlUSFkZ7ylyt0HD76bSVXVQNtx8NVaPMcx+B291PygEI3AYJj9q80hcGehfLXKnRUuS3DIN38sSrP53N2cO5Rz5VZmmrL5eL9nHX3VXCFxmW53IYLj6+SFartsuuW4bEeKW7EK3Qcb6rBzKRJDMRD4unqUCKQw/es7RVFoFAlIaEQvFS8QoNM72On5fEKDeLXWdupxSm8NkJH+VgL91xh4Tc5VmWXspMUslLqZ/SyX6HQpsPKtZ0UhWxoKnN7ncDYmEK1Er6Uv0pjo8WcDYlVMOkF6GEKDZZ+sLvHKqSVOh9a7hfV7IBC7hJB8kW8QuKDPMp26DZfohCskqqQPms+tNw9XW3jOigE+fD0qgkKYdOGzf4sCf6fUcj3k4opCq+YwutdCr8Jo3BOZym34W+2MlNsmDhLQWFRGIXtDx6BOSaZD9Nhx34W0hVy1/kmzDoEj1CNXMtbmR8MwTykF8jj81JaloBHPlLedoBCCHEyHRszqheroXqic5g5IX/axipkkZOZ0D7SfvEBCiEttede/3yN5S3ecchpCm9uq1OG5n2SQtkou+atvEHZ9e30CouQ5KnzX7TQlWnOzPNSW5X5MZKWJ+Slbk+Z9zSOI/Aghbk2DMfhRQFZP8HqKVCVkIohsXoK9FSPtVt8kMJKuGyl9sxHFQYOzuupCjn2kbLSAxXmKvNCdGQ2ORd2okICbeJZdyu05aPtuR2m0O2xDQ7QoftWoNCo8oUlFxx6YqzCucPnvNE+3qZi/h/V5x9fIWswhW9bv70lb2G+scPBUHz1ZhgF26357YIR2OQt+n23pVznTTX8w4bBKhb3sfjXGcvBp9iuk562rdrx71U/Rz1PqUcbHhX2B7/VCbWATvX+rdau/fpdDSiv8Avli97h8rdO9CC5ECh0/+71dK9zRH0iEFD4l4IKzx9UeP6gwvPn71dI86bxfHfXMyV/RfgT30chCIIgCIIgCIIgCIIgCIIgCIIgCIIgCIIgCIIIzf+chu8fetjSaAAAAABJRU5ErkJggg==;" vertex="1" parent="1">
          <mxGeometry x="770" y="-655.36" width="225" height="225" as="geometry" />
        </mxCell>
        <mxCell id="0VyX5d_8uN8t0-djkHP3-255" style="edgeStyle=orthogonalEdgeStyle;rounded=0;orthogonalLoop=1;jettySize=auto;html=1;exitX=0.5;exitY=0;exitDx=0;exitDy=0;entryX=0;entryY=0.5;entryDx=0;entryDy=0;entryPerimeter=0;" edge="1" parent="1" source="0VyX5d_8uN8t0-djkHP3-206" target="0VyX5d_8uN8t0-djkHP3-248">
          <mxGeometry relative="1" as="geometry" />
        </mxCell>
        <mxCell id="0VyX5d_8uN8t0-djkHP3-264" value="&lt;div&gt;&lt;b&gt;Courier&lt;br&gt; (Integrações com API)&lt;/b&gt;&lt;/div&gt;" style="edgeLabel;html=1;align=center;verticalAlign=middle;resizable=0;points=[];" vertex="1" connectable="0" parent="0VyX5d_8uN8t0-djkHP3-255">
          <mxGeometry x="0.3596" y="-1" relative="1" as="geometry">
            <mxPoint as="offset" />
          </mxGeometry>
        </mxCell>
      </root>
    </mxGraphModel>
  </diagram>
</mxfile>
